G04 ================== begin FILE IDENTIFICATION RECORD ==================*
G04 Layout Name:  C:/PCB/Schematic/allegro/oscilatorWien3.brd*
G04 Film Name:    BOTTOM*
G04 File Format:  Gerber RS274X*
G04 File Origin:  Cadence Allegro 17.2-S025*
G04 Origin Date:  Fri Dec 05 16:03:04 2025*
G04 *
G04 Layer:  ETCH/BOTTOM*
G04 Layer:  PIN/BOTTOM*
G04 Layer:  VIA CLASS/BOTTOM*
G04 *
G04 Offset:    (0.0000 0.0000)*
G04 Mirror:    No*
G04 Mode:      Positive*
G04 Rotation:  0*
G04 FullContactRelief:  No*
G04 UndefLineWidth:     0.0000*
G04 ================== end FILE IDENTIFICATION RECORD ====================*
%FSLAX25Y25*MOMM*%
%IR0*IPPOS*OFA0.00000B0.00000*MIA0B0*SFA1.00000B1.00000*%
%ADD10C,.8*%
%ADD11C,.45*%
%ADD12C,.65*%
G75*
%LPD*%
G75*
G54D10*
X780000Y900000D03*
X860000Y360000D03*
X1270000Y1350000D03*
X960000Y1410000D03*
X970000Y2370000D03*
X1060000Y2610000D03*
X1140000Y2364800D03*
X1230000Y2430000D03*
X970000Y2990000D03*
X864260Y3540000D03*
X1200000Y3560000D03*
X1580000Y1350000D03*
X1690000Y1760000D03*
X1915740Y1480000D03*
X1680000Y1620000D03*
X1720000Y2550000D03*
X1630000Y2440000D03*
X2020000Y3030000D03*
X2120000Y3540000D03*
X1690000Y3530000D03*
X2245860Y870000D03*
X2550000Y770000D03*
X2710000Y1630000D03*
X2840000Y1670000D03*
X2750000Y1460000D03*
X2530000Y2600000D03*
X2680000Y2180000D03*
X2940000Y2220000D03*
X2510000Y2850000D03*
X2330000Y3130000D03*
X2680000Y2700000D03*
X2940000Y3320000D03*
X2590000Y3550000D03*
X3490000Y650000D03*
X2980000Y870000D03*
X3180000Y760000D03*
X3550000Y1250000D03*
X3420000Y1780000D03*
X3350000Y1650000D03*
X3320000Y2065740D03*
X3040000D03*
X3212500Y2000000D03*
X3340000Y2220000D03*
X3090000Y2810000D03*
G54D11*
G01X860000Y360000D02*
X1370000Y870000D01*
X2245860D01*
G01X1270000Y1350000D02*
X1580000D01*
G01X1630000Y2440000D02*
X960000Y1770000D01*
Y1410000D01*
G01X970000Y2370000D02*
X962500Y2377500D01*
Y2982500D01*
X970000Y2990000D01*
G01X1140000Y2364800D02*
X1060000Y2444800D01*
Y2610000D01*
G01X1200000Y3560000D02*
X1279850Y3480150D01*
Y2479850D01*
X1230000Y2430000D01*
G01X1915740Y1480000D02*
Y1760000D01*
G01X1690000D02*
X1915740D01*
G01X2530000Y2600000D02*
Y2374260D01*
X1915740Y1760000D01*
G01X2020000Y3030000D02*
X1690000Y3360000D01*
Y3530000D01*
G01X2245860Y870000D02*
X2980000D01*
G01X2550000Y770000D02*
X3090000Y230000D01*
X3290000D01*
X3740000Y680000D01*
Y2520000D01*
X2940000Y3320000D01*
G01X2710000Y1630000D02*
X2782500Y1557500D01*
X2867500D01*
X3090000Y1780000D01*
X3420000D01*
G01X2840000Y1670000D02*
Y2020000D01*
X2680000Y2180000D01*
G01X2750000Y1460000D02*
X3180000Y1030000D01*
Y760000D01*
G01X2330000Y3130000D02*
X2510000Y2950000D01*
Y2850000D01*
G01X3550000Y1250000D02*
X3617500Y1317500D01*
Y1965740D01*
X3517500Y2065740D01*
X3320000D01*
G01X3040000D02*
X3071760Y2097500D01*
X3288240D01*
X3320000Y2065740D01*
G01X3090000Y2810000D02*
X2940000Y2660000D01*
Y2220000D01*
G01X3340000D02*
X2940000D01*
G54D12*
G01X864260Y3540000D02*
X780000Y3455740D01*
Y900000D01*
G01D02*
X850480D01*
X1080000Y1129520D01*
Y1400000D01*
X1300000Y1620000D01*
X1680000D01*
G01X864260Y3540000D02*
X1141300Y3817040D01*
X1842960D01*
X2120000Y3540000D01*
G01X2680000Y2700000D02*
X2660000Y2720000D01*
X1890000D01*
X1720000Y2550000D01*
G01X2590000Y3550000D02*
X2540150Y3599850D01*
X2179850D01*
X2120000Y3540000D01*
G01X3490000Y650000D02*
X3350000Y790000D01*
Y1650000D01*
G01X3212500Y2000000D02*
X3325000Y1887500D01*
X3517500D01*
X3527500Y1877500D01*
Y1682500D01*
X3517500Y1672500D01*
X3372500D01*
X3350000Y1650000D01*
M02*
