M48
METRIC,TZ
T01C.4
;LEADER: 12 
;HEADER: 
;CODE  : ASCII 
;FILE  : DRILL-1-2.drl for  ... layers TOP and BOTTOM
;DESIGN: oscilatorWien2.brd
;T01 Holesize 1. = 0.400000 Tolerance = +0.000000/-0.000000 PLATED MM Quantity = 44
%
G90
T01
X3090000Y2810000
X3340000Y2220000
X2940000Y2220000
X2550000Y770000
X3180000Y760000
X2750000Y1460000
X2940000Y3320000
X1690000Y3530000
X2020000Y3030000
X2840000Y1670000
X2680000Y2180000
X1200000Y3560000
X1230000Y2430000
X1140000Y2364800
X1060000Y2610000
X970000Y2370000
X970000Y2990000
X2980000Y870000
X2245860Y870000
X960000Y1410000
X860000Y360000
X1630000Y2440000
X1720000Y2550000
X3212500Y2000000
X3350000Y1650000
X2680000Y2700000
X3490000Y650000
X2710000Y1630000
X3420000Y1780000
X3550000Y1250000
X3040000Y2065740
X3320000Y2065740
X1680000Y1620000
X780000Y900000
X864260Y3540000
X2120000Y3540000
X2590000Y3550000
X2330000Y3130000
X1915740Y1480000
X1690000Y1760000
X2530000Y2600000
X2510000Y2850000
X1580000Y1350000
X1270000Y1350000
M30
