G04 ================== begin FILE IDENTIFICATION RECORD ==================*
G04 Layout Name:  C:/PCB/Schematic/allegro/oscilatorWien3.brd*
G04 Film Name:    FAB*
G04 File Format:  Gerber RS274X*
G04 File Origin:  Cadence Allegro 17.2-S025*
G04 Origin Date:  Fri Dec 05 16:03:04 2025*
G04 *
G04 Layer:  MANUFACTURING/NCDRILL_LEGEND*
G04 Layer:  MANUFACTURING/NCDRILL_FIGURE*
G04 Layer:  MANUFACTURING/XSECTION_CHART*
G04 Layer:  MANUFACTURING/NCLEGEND-1-2*
G04 Layer:  BOARD GEOMETRY/DESIGN_OUTLINE*
G04 *
G04 Offset:    (0.0000 0.0000)*
G04 Mirror:    No*
G04 Mode:      Positive*
G04 Rotation:  0*
G04 FullContactRelief:  No*
G04 UndefLineWidth:     0.0000*
G04 ================== end FILE IDENTIFICATION RECORD ====================*
%FSLAX25Y25*MOMM*%
%IR0*IPPOS*OFA0.00000B0.00000*MIA0B0*SFA1.00000B1.00000*%
%AMMACRO10*
1,1,0.0,0.0,.5*
20,1,0.0,0.0,.5,.5,-.5,0.0*
1,1,0.0,.5,-.5*
20,1,0.0,.5,-.5,-.5,-.5,0.0*
1,1,0.0,-.5,-.5*
20,1,0.0,-.5,-.5,0.0,.5,0.0*
1,1,0.0,0.0,.5*
1,1,0.0,.25,0.0*
20,1,0.0,.25,0.0,-.25,0.0,0.0*
1,1,0.0,-.25,0.0*
1,1,0.0,0.0,.25*
20,1,0.0,0.0,.25,0.0,-.25,0.0*
1,1,0.0,0.0,-.25*
%
%ADD10MACRO10*%
G75*
%LPD*%
G75*
G36*
G01X6868000Y4147840D02*
Y3562630D01*
X6931500D01*
Y-338810D01*
X6868000D01*
Y-924020D01*
X7249000D01*
Y-338810D01*
X7185500D01*
Y3562630D01*
X7249000D01*
Y4147840D01*
X6868000D01*
G37*
G36*
G01X6360000Y-924020D02*
Y-338810D01*
X7884000D01*
Y-924020D01*
X6360000D01*
G37*
G36*
G01Y3562630D02*
Y4147840D01*
X7884000D01*
Y3562630D01*
X6360000D01*
G37*
G54D10*
X-2438270Y5632500D03*
X780000Y900000D03*
X860000Y360000D03*
X1270000Y1350000D03*
X960000Y1410000D03*
X970000Y2370000D03*
X1060000Y2610000D03*
X1140000Y2364800D03*
X1230000Y2430000D03*
X970000Y2990000D03*
X864260Y3540000D03*
X1200000Y3560000D03*
X1580000Y1350000D03*
X1690000Y1760000D03*
X1915740Y1480000D03*
X1680000Y1620000D03*
X1720000Y2550000D03*
X1630000Y2440000D03*
X2020000Y3030000D03*
X2120000Y3540000D03*
X1690000Y3530000D03*
X2245860Y870000D03*
X2550000Y770000D03*
X2710000Y1630000D03*
X2840000Y1670000D03*
X2750000Y1460000D03*
X2530000Y2600000D03*
X2680000Y2180000D03*
X2940000Y2220000D03*
X2510000Y2850000D03*
X2330000Y3130000D03*
X2680000Y2700000D03*
X2940000Y3320000D03*
X2590000Y3550000D03*
X3490000Y650000D03*
X2980000Y870000D03*
X3180000Y760000D03*
X3550000Y1250000D03*
X3420000Y1780000D03*
X3350000Y1650000D03*
X3320000Y2065740D03*
X3040000D03*
X3212500Y2000000D03*
X3340000Y2220000D03*
X3090000Y2810000D03*
M02*
