G04 ================== begin FILE IDENTIFICATION RECORD ==================*
G04 Layout Name:  C:/PCB/Schematic/allegro/oscilatorWien3.brd*
G04 Film Name:    SMTOP*
G04 File Format:  Gerber RS274X*
G04 File Origin:  Cadence Allegro 17.2-S025*
G04 Origin Date:  Fri Dec 05 16:03:04 2025*
G04 *
G04 Layer:  VIA CLASS/SOLDERMASK_TOP*
G04 Layer:  PIN/SOLDERMASK_TOP*
G04 Layer:  PACKAGE GEOMETRY/SOLDERMASK_TOP*
G04 Layer:  DRC ERROR CLASS/SOLDERMASK_TOP*
G04 Layer:  BOARD GEOMETRY/SOLDERMASK_TOP*
G04 *
G04 Offset:    (0.0000 0.0000)*
G04 Mirror:    No*
G04 Mode:      Positive*
G04 Rotation:  0*
G04 FullContactRelief:  No*
G04 UndefLineWidth:     0.0000*
G04 ================== end FILE IDENTIFICATION RECORD ====================*
%FSLAX25Y25*MOMM*%
%IR0*IPPOS*OFA0.00000B0.00000*MIA0B0*SFA1.00000B1.00000*%
%ADD13C,.8*%
%ADD10R,.9144X1.27*%
%ADD11R,1.27X.9144*%
%ADD15C,2.*%
%ADD12R,1.27X1.27*%
%ADD17R,3.048X1.9304*%
%ADD14R,1.2192X1.9304*%
%ADD16R,1.9304X3.048*%
%LPD*%
G75*
G54D10*
X230000Y1030000D03*
X438280D03*
X334140Y1235740D03*
X354140Y2375740D03*
X250000Y2170000D03*
X458280D03*
X855860Y1064260D03*
X835860Y1484260D03*
X940000Y1690000D03*
X731720D03*
X960000Y1270000D03*
X751720D03*
X1354140Y2395740D03*
X1250000Y2190000D03*
X824140Y2175740D03*
X720000Y1970000D03*
X928280D03*
X2141720Y1200000D03*
X1860000Y1860000D03*
X2068280D03*
X1458280Y2190000D03*
X1964140Y2065740D03*
X2245860Y994260D03*
X2350000Y1200000D03*
G54D11*
X660000Y720000D03*
Y511720D03*
X505740Y1655860D03*
X300000Y1760000D03*
Y1551720D03*
X244260Y3184140D03*
X450000Y3080000D03*
Y3288280D03*
X865740Y615860D03*
X1415740Y1085860D03*
X1210000Y981720D03*
Y1190000D03*
X744260Y2604140D03*
X950000Y2500000D03*
Y2708280D03*
X1264260Y3234140D03*
X864260Y3684140D03*
X1070000Y3580000D03*
Y3788280D03*
X1710000Y1101720D03*
X1915740Y1205860D03*
X1710000Y1310000D03*
X1794260Y2374140D03*
X2000000Y2270000D03*
Y2478280D03*
X1470000Y3130000D03*
Y3338280D03*
X1885740Y2835860D03*
X1680000Y2940000D03*
Y2731720D03*
X2374260Y1644140D03*
X2580000Y1540000D03*
Y1748280D03*
X3214260Y904140D03*
X3420000Y800000D03*
Y1008280D03*
X3665740Y2045860D03*
X3460000Y2150000D03*
Y1941720D03*
G54D12*
X360000Y750000D03*
Y536640D03*
X280000Y2810000D03*
X493360D03*
X460000Y3740000D03*
Y3526640D03*
X1140000Y740000D03*
Y526640D03*
X1250000Y1690000D03*
X750000Y3230000D03*
X963360D03*
X1420000Y2740000D03*
X1206640D03*
X1390000Y3760000D03*
Y3546640D03*
X1540000Y730000D03*
Y516640D03*
X1950000Y720000D03*
Y506640D03*
X1463360Y1690000D03*
X1860000Y1630000D03*
X2073360D03*
X2120000Y3220000D03*
X1906640D03*
X2096640Y3760000D03*
X2350000Y700000D03*
Y486640D03*
X2750000Y460000D03*
Y673360D03*
Y1070000D03*
Y1283360D03*
X2720000Y3190000D03*
Y2976640D03*
X2860000Y3730000D03*
Y3516640D03*
X2310000Y3760000D03*
X3700000Y730000D03*
Y516640D03*
X3210000Y1440000D03*
Y1226640D03*
X3000000Y1830000D03*
X3213360D03*
X3490000Y1450000D03*
X3703360D03*
X3080000Y3080000D03*
X3293360D03*
G54D13*
X780000Y900000D03*
X860000Y360000D03*
X1270000Y1350000D03*
X960000Y1410000D03*
X970000Y2370000D03*
X1060000Y2610000D03*
X1140000Y2364800D03*
X1230000Y2430000D03*
X970000Y2990000D03*
X864260Y3540000D03*
X1200000Y3560000D03*
X1580000Y1350000D03*
X1690000Y1760000D03*
X1915740Y1480000D03*
X1680000Y1620000D03*
X1720000Y2550000D03*
X1630000Y2440000D03*
X2020000Y3030000D03*
X2120000Y3540000D03*
X1690000Y3530000D03*
X2245860Y870000D03*
X2550000Y770000D03*
X2710000Y1630000D03*
X2840000Y1670000D03*
X2750000Y1460000D03*
X2530000Y2600000D03*
X2680000Y2180000D03*
X2940000Y2220000D03*
X2510000Y2850000D03*
X2330000Y3130000D03*
X2680000Y2700000D03*
X2940000Y3320000D03*
X2590000Y3550000D03*
X3490000Y650000D03*
X2980000Y870000D03*
X3180000Y760000D03*
X3550000Y1250000D03*
X3420000Y1780000D03*
X3350000Y1650000D03*
X3320000Y2065740D03*
X3040000D03*
X3212500Y2000000D03*
X3340000Y2220000D03*
X3090000Y2810000D03*
G54D14*
X2159340Y2740000D03*
X2530000Y2420000D03*
X2730660D03*
X2360000Y2740000D03*
G54D15*
X3200000Y500000D03*
Y3500000D03*
G54D16*
X3130000Y2490000D03*
X3729440D03*
G54D17*
X3670000Y3130000D03*
Y3729440D03*
M02*
