G04 ================== begin FILE IDENTIFICATION RECORD ==================*
G04 Layout Name:  C:/PCB/Schematic/allegro/oscilatorWien3.brd*
G04 Film Name:    SSTOP*
G04 File Format:  Gerber RS274X*
G04 File Origin:  Cadence Allegro 17.2-S025*
G04 Origin Date:  Fri Dec 05 16:03:04 2025*
G04 *
G04 Layer:  REF DES/SILKSCREEN_TOP*
G04 Layer:  PACKAGE GEOMETRY/SILKSCREEN_TOP*
G04 Layer:  BOARD GEOMETRY/SILKSCREEN_TOP*
G04 *
G04 Offset:    (0.0000 0.0000)*
G04 Mirror:    No*
G04 Mode:      Positive*
G04 Rotation:  0*
G04 FullContactRelief:  No*
G04 UndefLineWidth:     0.0000*
G04 ================== end FILE IDENTIFICATION RECORD ====================*
%FSLAX25Y25*MOMM*%
%IR0*IPPOS*OFA0.00000B0.00000*MIA0B0*SFA1.00000B1.00000*%
%ADD10C,.15*%
%ADD11C,.1524*%
G75*
%LPD*%
G75*
G54D10*
G01X170000Y280000D02*
X203330D01*
Y250000D01*
X193330Y240000D01*
X181670Y233330D01*
X165000Y230000D01*
X148330Y233330D01*
X136670Y240000D01*
X126670Y250000D01*
X120000Y261670D01*
X116670Y275000D01*
Y286670D01*
X120000Y296660D01*
X126670Y308330D01*
X136670Y318330D01*
X146660Y325000D01*
X160000Y330000D01*
X171670D01*
X185000Y326670D01*
X195000Y320000D01*
G01X256670Y230000D02*
Y296660D01*
G01Y283330D02*
X265000Y290000D01*
X273330Y295000D01*
X285000Y296660D01*
X293330Y295000D01*
X303330Y290000D01*
G01X375000Y275000D02*
X428330D01*
X423330Y286670D01*
X415000Y293330D01*
X403330Y296660D01*
X391670Y295000D01*
X381670Y290000D01*
X375000Y278330D01*
X371670Y268330D01*
Y258330D01*
X375000Y248330D01*
X383330Y238330D01*
X393330Y231670D01*
X405000Y230000D01*
X416670Y233330D01*
X428330Y243330D01*
G01X546670Y288330D02*
X535000Y295000D01*
X525000Y296660D01*
X511670Y293330D01*
X501670Y286670D01*
X495000Y275000D01*
X493330Y263330D01*
X495000Y251670D01*
X501670Y241660D01*
X511670Y233330D01*
X525000Y230000D01*
X536670Y233330D01*
X546670Y240000D01*
G01X611670Y296660D02*
Y250000D01*
X618330Y238330D01*
X628330Y231670D01*
X640000Y230000D01*
X651670Y231670D01*
X661670Y238330D01*
X668330Y250000D01*
G01Y230000D02*
Y296660D01*
G01X845000Y243330D02*
X858330Y235000D01*
X873330Y230000D01*
X886670D01*
X900000Y235000D01*
X910000Y243330D01*
X915000Y255000D01*
X911670Y266660D01*
X903330Y276670D01*
X888330Y283330D01*
X868330Y286670D01*
X856670Y293330D01*
X851670Y305000D01*
X855000Y316670D01*
X863330Y325000D01*
X875000Y330000D01*
X886670D01*
X898330Y326670D01*
X908330Y318330D01*
G01X1000000Y330000D02*
Y230000D01*
G01X976670Y296660D02*
X1023330D01*
G01X1095000Y275000D02*
X1148330D01*
X1143330Y286670D01*
X1135000Y293330D01*
X1123330Y296660D01*
X1111670Y295000D01*
X1101670Y290000D01*
X1095000Y278330D01*
X1091670Y268330D01*
Y258330D01*
X1095000Y248330D01*
X1103330Y238330D01*
X1113330Y231670D01*
X1125000Y230000D01*
X1136670Y233330D01*
X1148330Y243330D01*
G01X1230000Y230000D02*
Y315000D01*
X1233330Y323330D01*
X1240000Y328330D01*
X1250000Y330000D01*
X1260000Y326670D01*
X1265000Y318330D01*
G01X1245000Y290000D02*
X1211670D01*
G01X1390000Y230000D02*
Y296660D01*
G01Y285000D02*
X1383330Y291670D01*
X1373330Y295000D01*
X1361670Y296660D01*
X1350000Y293330D01*
X1340000Y286670D01*
X1333330Y276670D01*
X1330000Y263330D01*
X1333330Y250000D01*
X1340000Y240000D01*
X1350000Y233330D01*
X1361670Y230000D01*
X1373330Y231670D01*
X1383330Y236670D01*
X1390000Y243330D01*
G01X1451670Y230000D02*
Y296660D01*
G01Y280000D02*
X1458330Y288330D01*
X1468330Y295000D01*
X1481670Y296660D01*
X1493330Y295000D01*
X1503330Y288330D01*
X1508330Y276670D01*
Y230000D01*
G01X1578330Y263330D02*
X1621670D01*
G01X1756670Y321670D02*
X1746670Y326670D01*
X1735000Y330000D01*
X1721670D01*
X1706660Y325000D01*
X1695000Y316670D01*
X1686670Y306670D01*
X1680000Y290000D01*
X1678330Y275000D01*
X1681670Y260000D01*
X1686670Y250000D01*
X1696670Y240000D01*
X1708330Y233330D01*
X1720000Y230000D01*
X1731670D01*
X1743330Y233330D01*
X1753330Y238330D01*
X1761670Y245000D01*
G01X1816670Y230000D02*
Y296660D01*
G01Y283330D02*
X1825000Y290000D01*
X1833330Y295000D01*
X1845000Y296660D01*
X1853330Y295000D01*
X1863330Y290000D01*
G01X1960000Y296660D02*
Y230000D01*
G01Y323330D02*
X1956670Y325000D01*
Y328330D01*
X1960000Y330000D01*
X1963330Y328330D01*
Y325000D01*
X1960000Y323330D01*
G01X2055000Y241660D02*
X2063330Y235000D01*
X2075000Y230000D01*
X2085000D01*
X2095000Y233330D01*
X2101670Y238330D01*
X2105000Y245000D01*
X2103330Y255000D01*
X2096670Y260000D01*
X2066660Y270000D01*
X2060000Y281670D01*
X2063330Y290000D01*
X2070000Y295000D01*
X2080000Y296660D01*
X2090000Y295000D01*
X2100000Y290000D01*
G01X2200000Y330000D02*
Y230000D01*
G01X2176670Y296660D02*
X2223330D01*
G01X2320000D02*
Y230000D01*
G01Y323330D02*
X2316670Y325000D01*
Y328330D01*
X2320000Y330000D01*
X2323330Y328330D01*
Y325000D01*
X2320000Y323330D01*
G01X2470000Y230000D02*
Y296660D01*
G01Y285000D02*
X2463330Y291670D01*
X2453330Y295000D01*
X2441670Y296660D01*
X2430000Y293330D01*
X2420000Y286670D01*
X2413330Y276670D01*
X2410000Y263330D01*
X2413330Y250000D01*
X2420000Y240000D01*
X2430000Y233330D01*
X2441670Y230000D01*
X2453330Y231670D01*
X2463330Y236670D01*
X2470000Y243330D01*
G01X2531670Y230000D02*
Y296660D01*
G01Y280000D02*
X2538330Y288330D01*
X2548330Y295000D01*
X2561670Y296660D01*
X2573330Y295000D01*
X2583330Y288330D01*
X2588330Y276670D01*
Y230000D01*
G01X2820000D02*
Y330000D01*
X2758330Y258330D01*
X2841670D01*
G01X2883330Y250000D02*
X2893330Y238330D01*
X2906660Y231670D01*
X2921670Y230000D01*
X2935000Y231670D01*
X2948330Y240000D01*
X2956670Y250000D01*
X2958330Y260000D01*
X2955000Y271660D01*
X2943330Y280000D01*
X2931670Y283330D01*
X2916670D01*
G01X2931670D02*
X2941670Y288330D01*
X2950000Y296660D01*
X2953330Y306670D01*
X2950000Y316670D01*
X2941670Y325000D01*
X2926670Y330000D01*
X2911670Y328330D01*
X2896670Y321670D01*
G01X3060000Y230000D02*
Y330000D01*
X2998330Y258330D01*
X3081670D01*
G01X3196670Y321670D02*
X3186670Y326670D01*
X3175000Y330000D01*
X3161670D01*
X3146660Y325000D01*
X3135000Y316670D01*
X3126670Y306670D01*
X3120000Y290000D01*
X3118330Y275000D01*
X3121670Y260000D01*
X3126670Y250000D01*
X3136670Y240000D01*
X3148330Y233330D01*
X3160000Y230000D01*
X3171670D01*
X3183330Y233330D01*
X3193330Y238330D01*
X3201670Y245000D01*
G01X136670Y120000D02*
Y220000D01*
X176670D01*
X190000Y215000D01*
X200000Y203330D01*
X203330Y190000D01*
X200000Y176670D01*
X191670Y166670D01*
X176670Y161660D01*
X136670D01*
G01X290000Y120000D02*
Y220000D01*
X270000Y200000D01*
G01Y120000D02*
X310000D01*
G01X373330D02*
Y220000D01*
X406670D01*
X420000Y215000D01*
X430000Y208330D01*
X438330Y198330D01*
X445000Y186660D01*
X446670Y170000D01*
X445000Y153330D01*
X438330Y141670D01*
X430000Y131660D01*
X420000Y125000D01*
X406670Y120000D01*
X373330D01*
G01X566670Y211670D02*
X556670Y216670D01*
X545000Y220000D01*
X531670D01*
X516660Y215000D01*
X505000Y206670D01*
X496670Y196670D01*
X490000Y180000D01*
X488330Y165000D01*
X491670Y150000D01*
X496670Y140000D01*
X506670Y130000D01*
X518330Y123330D01*
X530000Y120000D01*
X541670D01*
X553330Y123330D01*
X563330Y128330D01*
X571670Y135000D01*
G01X683330Y120000D02*
X616670D01*
Y220000D01*
X683330D01*
G01X656670Y171670D02*
X616670D01*
G01X858330Y203330D02*
X868330Y213330D01*
X880000Y218330D01*
X893330Y220000D01*
X910000Y216670D01*
X921670Y208330D01*
X925000Y198330D01*
X923330Y188330D01*
X916670Y180000D01*
X883330Y163330D01*
X868330Y151670D01*
X858330Y135000D01*
X855000Y120000D01*
X925000D01*
G01X1010000Y220000D02*
X996660Y216670D01*
X986670Y208330D01*
X980000Y198330D01*
X975000Y185000D01*
X973330Y170000D01*
X975000Y155000D01*
X980000Y141670D01*
X986670Y131660D01*
X996660Y123330D01*
X1010000Y120000D01*
X1023330Y123330D01*
X1033330Y131660D01*
X1040000Y141670D01*
X1045000Y155000D01*
X1046670Y170000D01*
X1045000Y185000D01*
X1040000Y198330D01*
X1033330Y208330D01*
X1023330Y216670D01*
X1010000Y220000D01*
G01X1098330Y203330D02*
X1108330Y213330D01*
X1120000Y218330D01*
X1133330Y220000D01*
X1150000Y216670D01*
X1161670Y208330D01*
X1165000Y198330D01*
X1163330Y188330D01*
X1156670Y180000D01*
X1123330Y163330D01*
X1108330Y151670D01*
X1098330Y135000D01*
X1095000Y120000D01*
X1165000D01*
G01X1213330Y135000D02*
X1223330Y126670D01*
X1235000Y121670D01*
X1250000Y120000D01*
X1265000Y123330D01*
X1276670Y130000D01*
X1285000Y141670D01*
X1286670Y155000D01*
X1283330Y168330D01*
X1275000Y176670D01*
X1263330Y183330D01*
X1251670Y185000D01*
X1240000Y183330D01*
X1225000Y176670D01*
X1230000Y220000D01*
X1275000D01*
G01X1348330Y153330D02*
X1391670D01*
G01X1458330Y203330D02*
X1468330Y213330D01*
X1480000Y218330D01*
X1493330Y220000D01*
X1510000Y216670D01*
X1521670Y208330D01*
X1525000Y198330D01*
X1523330Y188330D01*
X1516670Y180000D01*
X1483330Y163330D01*
X1468330Y151670D01*
X1458330Y135000D01*
X1455000Y120000D01*
X1525000D01*
G01X1610000Y220000D02*
X1596660Y216670D01*
X1586670Y208330D01*
X1580000Y198330D01*
X1575000Y185000D01*
X1573330Y170000D01*
X1575000Y155000D01*
X1580000Y141670D01*
X1586670Y131660D01*
X1596660Y123330D01*
X1610000Y120000D01*
X1623330Y123330D01*
X1633330Y131660D01*
X1640000Y141670D01*
X1645000Y155000D01*
X1646670Y170000D01*
X1645000Y185000D01*
X1640000Y198330D01*
X1633330Y208330D01*
X1623330Y216670D01*
X1610000Y220000D01*
G01X1698330Y203330D02*
X1708330Y213330D01*
X1720000Y218330D01*
X1733330Y220000D01*
X1750000Y216670D01*
X1761670Y208330D01*
X1765000Y198330D01*
X1763330Y188330D01*
X1756670Y180000D01*
X1723330Y163330D01*
X1708330Y151670D01*
X1698330Y135000D01*
X1695000Y120000D01*
X1765000D01*
G01X1818330Y161660D02*
X1830000Y173330D01*
X1840000Y180000D01*
X1853330Y183330D01*
X1865000Y180000D01*
X1873330Y173330D01*
X1880000Y163330D01*
X1881670Y151670D01*
X1880000Y141670D01*
X1873330Y131660D01*
X1863330Y123330D01*
X1851670Y120000D01*
X1838330Y123330D01*
X1826670Y133330D01*
X1820000Y148330D01*
X1818330Y165000D01*
X1821670Y186660D01*
X1826670Y198330D01*
X1835000Y210000D01*
X1846670Y218330D01*
X1858330Y220000D01*
X1870000Y216670D01*
X1878330Y208330D01*
G01X490000Y300000D02*
X476660Y301670D01*
X465000Y308330D01*
X455000Y318330D01*
X448330Y330000D01*
X445000Y343330D01*
Y356670D01*
X448330Y370000D01*
X455000Y381670D01*
X465000Y391670D01*
X476660Y398330D01*
X490000Y400000D01*
X503330Y398330D01*
X515000Y391670D01*
X525000Y381670D01*
X531670Y370000D01*
X535000Y356670D01*
Y343330D01*
X531670Y330000D01*
X525000Y318330D01*
X515000Y308330D01*
X503330Y301670D01*
X490000Y300000D01*
G01X503330Y326670D02*
X523330Y300000D01*
G01X610000D02*
Y400000D01*
X590000Y380000D01*
G01Y300000D02*
X630000D01*
G01X698330Y341660D02*
X710000Y353330D01*
X720000Y360000D01*
X733330Y363330D01*
X745000Y360000D01*
X753330Y353330D01*
X760000Y343330D01*
X761670Y331670D01*
X760000Y321670D01*
X753330Y311660D01*
X743330Y303330D01*
X731670Y300000D01*
X718330Y303330D01*
X706670Y313330D01*
X700000Y328330D01*
X698330Y345000D01*
X701670Y366660D01*
X706670Y378330D01*
X715000Y390000D01*
X726670Y398330D01*
X738330Y400000D01*
X750000Y396670D01*
X758330Y388330D01*
G01X490000Y300000D02*
X476660Y301670D01*
X465000Y308330D01*
X455000Y318330D01*
X448330Y330000D01*
X445000Y343330D01*
Y356670D01*
X448330Y370000D01*
X455000Y381670D01*
X465000Y391670D01*
X476660Y398330D01*
X490000Y400000D01*
X503330Y398330D01*
X515000Y391670D01*
X525000Y381670D01*
X531670Y370000D01*
X535000Y356670D01*
Y343330D01*
X531670Y330000D01*
X525000Y318330D01*
X515000Y308330D01*
X503330Y301670D01*
X490000Y300000D01*
G01X503330Y326670D02*
X523330Y300000D01*
G01X610000D02*
Y400000D01*
X590000Y380000D01*
G01Y300000D02*
X630000D01*
G01X698330Y341660D02*
X710000Y353330D01*
X720000Y360000D01*
X733330Y363330D01*
X745000Y360000D01*
X753330Y353330D01*
X760000Y343330D01*
X761670Y331670D01*
X760000Y321670D01*
X753330Y311660D01*
X743330Y303330D01*
X731670Y300000D01*
X718330Y303330D01*
X706670Y313330D01*
X700000Y328330D01*
X698330Y345000D01*
X701670Y366660D01*
X706670Y378330D01*
X715000Y390000D01*
X726670Y398330D01*
X738330Y400000D01*
X750000Y396670D01*
X758330Y388330D01*
G01X637900Y1002680D02*
X636230Y989340D01*
X629570Y977680D01*
X619570Y967680D01*
X607900Y961010D01*
X594570Y957680D01*
X581230D01*
X567900Y961010D01*
X556230Y967680D01*
X546230Y977680D01*
X539570Y989340D01*
X537900Y1002680D01*
X539570Y1016010D01*
X546230Y1027680D01*
X556230Y1037680D01*
X567900Y1044350D01*
X581230Y1047680D01*
X594570D01*
X607900Y1044350D01*
X619570Y1037680D01*
X629570Y1027680D01*
X636230Y1016010D01*
X637900Y1002680D01*
G01X611230Y1016010D02*
X637900Y1036010D01*
G01Y1122680D02*
X537900D01*
X557900Y1102680D01*
G01X637900D02*
Y1142680D01*
G01X622900Y1206010D02*
X631230Y1216010D01*
X636230Y1227680D01*
X637900Y1242680D01*
X634570Y1257680D01*
X627900Y1269350D01*
X616230Y1277680D01*
X602900Y1279350D01*
X589570Y1276010D01*
X581230Y1267680D01*
X574570Y1256010D01*
X572900Y1244350D01*
X574570Y1232680D01*
X581230Y1217680D01*
X537900Y1222680D01*
Y1267680D01*
G01X640000Y1000000D02*
X638330Y986660D01*
X631670Y975000D01*
X621670Y965000D01*
X610000Y958330D01*
X596670Y955000D01*
X583330D01*
X570000Y958330D01*
X558330Y965000D01*
X548330Y975000D01*
X541670Y986660D01*
X540000Y1000000D01*
X541670Y1013330D01*
X548330Y1025000D01*
X558330Y1035000D01*
X570000Y1041670D01*
X583330Y1045000D01*
X596670D01*
X610000Y1041670D01*
X621670Y1035000D01*
X631670Y1025000D01*
X638330Y1013330D01*
X640000Y1000000D01*
G01X613330Y1013330D02*
X640000Y1033330D01*
G01Y1120000D02*
X540000D01*
X560000Y1100000D01*
G01X640000D02*
Y1140000D01*
G01X625000Y1203330D02*
X633330Y1213330D01*
X638330Y1225000D01*
X640000Y1240000D01*
X636670Y1255000D01*
X630000Y1266670D01*
X618330Y1275000D01*
X605000Y1276670D01*
X591670Y1273330D01*
X583330Y1265000D01*
X576670Y1253330D01*
X575000Y1241670D01*
X576670Y1230000D01*
X583330Y1215000D01*
X540000Y1220000D01*
Y1265000D01*
G01X130000Y813330D02*
X230000D01*
Y771670D01*
X225000Y758330D01*
X218330Y750000D01*
X205000Y746670D01*
X191670Y750000D01*
X183330Y760000D01*
X178330Y771670D01*
Y813330D01*
G01Y771670D02*
X130000Y746670D01*
G01Y660000D02*
X230000D01*
X210000Y680000D01*
G01X130000D02*
Y640000D01*
G01X141660Y568330D02*
X133330Y556670D01*
X130000Y543330D01*
X133330Y530000D01*
X143330Y518330D01*
X158330Y510000D01*
X173330Y506670D01*
X191670D01*
X206670Y510000D01*
X220000Y518330D01*
X226670Y528330D01*
X230000Y540000D01*
X226670Y553340D01*
X220000Y563330D01*
X210000Y570000D01*
X196660Y573330D01*
X185000Y570000D01*
X173330Y561670D01*
X166660Y551670D01*
X165000Y540000D01*
X168330Y526670D01*
X176670Y516670D01*
X191670Y506670D01*
G01X131230Y807470D02*
X231230D01*
Y765810D01*
X226230Y752470D01*
X219560Y744140D01*
X206230Y740810D01*
X192900Y744140D01*
X184560Y754140D01*
X179560Y765810D01*
Y807470D01*
G01Y765810D02*
X131230Y740810D01*
G01Y654140D02*
X231230D01*
X211230Y674140D01*
G01X131230D02*
Y634140D01*
G01X142890Y562470D02*
X134560Y550810D01*
X131230Y537470D01*
X134560Y524140D01*
X144560Y512470D01*
X159560Y504140D01*
X174560Y500810D01*
X192900D01*
X207900Y504140D01*
X221230Y512470D01*
X227900Y522470D01*
X231230Y534140D01*
X227900Y547480D01*
X221230Y557470D01*
X211230Y564140D01*
X197890Y567470D01*
X186230Y564140D01*
X174560Y555810D01*
X167890Y545810D01*
X166230Y534140D01*
X169560Y520810D01*
X177900Y510810D01*
X192900Y500810D01*
G01X131230Y807470D02*
X231230D01*
Y765810D01*
X226230Y752470D01*
X219560Y744140D01*
X206230Y740810D01*
X192900Y744140D01*
X184560Y754140D01*
X179560Y765810D01*
Y807470D01*
G01Y765810D02*
X131230Y740810D01*
G01Y654140D02*
X231230D01*
X211230Y674140D01*
G01X131230D02*
Y634140D01*
G01X142890Y562470D02*
X134560Y550810D01*
X131230Y537470D01*
X134560Y524140D01*
X144560Y512470D01*
X159560Y504140D01*
X174560Y500810D01*
X192900D01*
X207900Y504140D01*
X221230Y512470D01*
X227900Y522470D01*
X231230Y534140D01*
X227900Y547480D01*
X221230Y557470D01*
X211230Y564140D01*
X197890Y567470D01*
X186230Y564140D01*
X174560Y555810D01*
X167890Y545810D01*
X166230Y534140D01*
X169560Y520810D01*
X177900Y510810D01*
X192900Y500810D01*
G01X270000Y1370000D02*
X256660Y1371670D01*
X245000Y1378330D01*
X235000Y1388330D01*
X228330Y1400000D01*
X225000Y1413330D01*
Y1426670D01*
X228330Y1440000D01*
X235000Y1451670D01*
X245000Y1461670D01*
X256660Y1468330D01*
X270000Y1470000D01*
X283330Y1468330D01*
X295000Y1461670D01*
X305000Y1451670D01*
X311670Y1440000D01*
X315000Y1426670D01*
Y1413330D01*
X311670Y1400000D01*
X305000Y1388330D01*
X295000Y1378330D01*
X283330Y1371670D01*
X270000Y1370000D01*
G01X283330Y1396670D02*
X303330Y1370000D01*
G01X358330Y1411660D02*
X370000Y1423330D01*
X380000Y1430000D01*
X393330Y1433330D01*
X405000Y1430000D01*
X413330Y1423330D01*
X420000Y1413330D01*
X421670Y1401670D01*
X420000Y1391670D01*
X413330Y1381660D01*
X403330Y1373330D01*
X391670Y1370000D01*
X378330Y1373330D01*
X366670Y1383330D01*
X360000Y1398330D01*
X358330Y1415000D01*
X361670Y1436660D01*
X366670Y1448330D01*
X375000Y1460000D01*
X386670Y1468330D01*
X398330Y1470000D01*
X410000Y1466670D01*
X418330Y1458330D01*
G01X270000Y1370000D02*
X256660Y1371670D01*
X245000Y1378330D01*
X235000Y1388330D01*
X228330Y1400000D01*
X225000Y1413330D01*
Y1426670D01*
X228330Y1440000D01*
X235000Y1451670D01*
X245000Y1461670D01*
X256660Y1468330D01*
X270000Y1470000D01*
X283330Y1468330D01*
X295000Y1461670D01*
X305000Y1451670D01*
X311670Y1440000D01*
X315000Y1426670D01*
Y1413330D01*
X311670Y1400000D01*
X305000Y1388330D01*
X295000Y1378330D01*
X283330Y1371670D01*
X270000Y1370000D01*
G01X283330Y1396670D02*
X303330Y1370000D01*
G01X358330Y1411660D02*
X370000Y1423330D01*
X380000Y1430000D01*
X393330Y1433330D01*
X405000Y1430000D01*
X413330Y1423330D01*
X420000Y1413330D01*
X421670Y1401670D01*
X420000Y1391670D01*
X413330Y1381660D01*
X403330Y1373330D01*
X391670Y1370000D01*
X378330Y1373330D01*
X366670Y1383330D01*
X360000Y1398330D01*
X358330Y1415000D01*
X361670Y1436660D01*
X366670Y1448330D01*
X375000Y1460000D01*
X386670Y1468330D01*
X398330Y1470000D01*
X410000Y1466670D01*
X418330Y1458330D01*
G01X480000Y1850000D02*
X466660Y1851670D01*
X455000Y1858330D01*
X445000Y1868330D01*
X438330Y1880000D01*
X435000Y1893330D01*
Y1906670D01*
X438330Y1920000D01*
X445000Y1931670D01*
X455000Y1941670D01*
X466660Y1948330D01*
X480000Y1950000D01*
X493330Y1948330D01*
X505000Y1941670D01*
X515000Y1931670D01*
X521670Y1920000D01*
X525000Y1906670D01*
Y1893330D01*
X521670Y1880000D01*
X515000Y1868330D01*
X505000Y1858330D01*
X493330Y1851670D01*
X480000Y1850000D01*
G01X493330Y1876670D02*
X513330Y1850000D01*
G01X563330Y1865000D02*
X573330Y1856670D01*
X585000Y1851670D01*
X600000Y1850000D01*
X615000Y1853330D01*
X626670Y1860000D01*
X635000Y1871670D01*
X636670Y1885000D01*
X633330Y1898330D01*
X625000Y1906670D01*
X613330Y1913330D01*
X601670Y1915000D01*
X590000Y1913330D01*
X575000Y1906670D01*
X580000Y1950000D01*
X625000D01*
G01X480000Y1850000D02*
X466660Y1851670D01*
X455000Y1858330D01*
X445000Y1868330D01*
X438330Y1880000D01*
X435000Y1893330D01*
Y1906670D01*
X438330Y1920000D01*
X445000Y1931670D01*
X455000Y1941670D01*
X466660Y1948330D01*
X480000Y1950000D01*
X493330Y1948330D01*
X505000Y1941670D01*
X515000Y1931670D01*
X521670Y1920000D01*
X525000Y1906670D01*
Y1893330D01*
X521670Y1880000D01*
X515000Y1868330D01*
X505000Y1858330D01*
X493330Y1851670D01*
X480000Y1850000D01*
G01X493330Y1876670D02*
X513330Y1850000D01*
G01X563330Y1865000D02*
X573330Y1856670D01*
X585000Y1851670D01*
X600000Y1850000D01*
X615000Y1853330D01*
X626670Y1860000D01*
X635000Y1871670D01*
X636670Y1885000D01*
X633330Y1898330D01*
X625000Y1906670D01*
X613330Y1913330D01*
X601670Y1915000D01*
X590000Y1913330D01*
X575000Y1906670D01*
X580000Y1950000D01*
X625000D01*
G01X520000Y1510000D02*
X521670Y1523340D01*
X528330Y1535000D01*
X538330Y1545000D01*
X550000Y1551670D01*
X563330Y1555000D01*
X576670D01*
X590000Y1551670D01*
X601670Y1545000D01*
X611670Y1535000D01*
X618330Y1523340D01*
X620000Y1510000D01*
X618330Y1496670D01*
X611670Y1485000D01*
X601670Y1475000D01*
X590000Y1468330D01*
X576670Y1465000D01*
X563330D01*
X550000Y1468330D01*
X538330Y1475000D01*
X528330Y1485000D01*
X521670Y1496670D01*
X520000Y1510000D01*
G01X546670Y1496670D02*
X520000Y1476670D01*
G01Y1370000D02*
X620000D01*
X548330Y1431670D01*
Y1348330D01*
G01X520000Y1510000D02*
X521670Y1523340D01*
X528330Y1535000D01*
X538330Y1545000D01*
X550000Y1551670D01*
X563330Y1555000D01*
X576670D01*
X590000Y1551670D01*
X601670Y1545000D01*
X611670Y1535000D01*
X618330Y1523340D01*
X620000Y1510000D01*
X618330Y1496670D01*
X611670Y1485000D01*
X601670Y1475000D01*
X590000Y1468330D01*
X576670Y1465000D01*
X563330D01*
X550000Y1468330D01*
X538330Y1475000D01*
X528330Y1485000D01*
X521670Y1496670D01*
X520000Y1510000D01*
G01X546670Y1496670D02*
X520000Y1476670D01*
G01Y1370000D02*
X620000D01*
X548330Y1431670D01*
Y1348330D01*
G01X253330Y1950000D02*
Y2050000D01*
X286670D01*
X300000Y2045000D01*
X310000Y2038330D01*
X318330Y2028330D01*
X325000Y2016660D01*
X326670Y2000000D01*
X325000Y1983330D01*
X318330Y1971670D01*
X310000Y1961660D01*
X300000Y1955000D01*
X286670Y1950000D01*
X253330D01*
G01X430000D02*
Y2050000D01*
X368330Y1978330D01*
X451670D01*
G01X243330Y1950000D02*
Y2050000D01*
X276670D01*
X290000Y2045000D01*
X300000Y2038330D01*
X308330Y2028330D01*
X315000Y2016660D01*
X316670Y2000000D01*
X315000Y1983330D01*
X308330Y1971670D01*
X300000Y1961660D01*
X290000Y1955000D01*
X276670Y1950000D01*
X243330D01*
G01X420000D02*
Y2050000D01*
X358330Y1978330D01*
X441670D01*
G01X630000Y2300000D02*
X616660Y2301670D01*
X605000Y2308330D01*
X595000Y2318330D01*
X588330Y2330000D01*
X585000Y2343330D01*
Y2356670D01*
X588330Y2370000D01*
X595000Y2381670D01*
X605000Y2391670D01*
X616660Y2398330D01*
X630000Y2400000D01*
X643330Y2398330D01*
X655000Y2391670D01*
X665000Y2381670D01*
X671670Y2370000D01*
X675000Y2356670D01*
Y2343330D01*
X671670Y2330000D01*
X665000Y2318330D01*
X655000Y2308330D01*
X643330Y2301670D01*
X630000Y2300000D01*
G01X643330Y2326670D02*
X663330Y2300000D01*
G01X718330Y2383330D02*
X728330Y2393330D01*
X740000Y2398330D01*
X753330Y2400000D01*
X770000Y2396670D01*
X781670Y2388330D01*
X785000Y2378330D01*
X783330Y2368330D01*
X776670Y2360000D01*
X743330Y2343330D01*
X728330Y2331670D01*
X718330Y2315000D01*
X715000Y2300000D01*
X785000D01*
G01X870000Y2400000D02*
X856660Y2396670D01*
X846670Y2388330D01*
X840000Y2378330D01*
X835000Y2365000D01*
X833330Y2350000D01*
X835000Y2335000D01*
X840000Y2321670D01*
X846670Y2311660D01*
X856660Y2303330D01*
X870000Y2300000D01*
X883330Y2303330D01*
X893330Y2311660D01*
X900000Y2321670D01*
X905000Y2335000D01*
X906670Y2350000D01*
X905000Y2365000D01*
X900000Y2378330D01*
X893330Y2388330D01*
X883330Y2396670D01*
X870000Y2400000D01*
G01X630000Y2300000D02*
X616660Y2301670D01*
X605000Y2308330D01*
X595000Y2318330D01*
X588330Y2330000D01*
X585000Y2343330D01*
Y2356670D01*
X588330Y2370000D01*
X595000Y2381670D01*
X605000Y2391670D01*
X616660Y2398330D01*
X630000Y2400000D01*
X643330Y2398330D01*
X655000Y2391670D01*
X665000Y2381670D01*
X671670Y2370000D01*
X675000Y2356670D01*
Y2343330D01*
X671670Y2330000D01*
X665000Y2318330D01*
X655000Y2308330D01*
X643330Y2301670D01*
X630000Y2300000D01*
G01X643330Y2326670D02*
X663330Y2300000D01*
G01X718330Y2383330D02*
X728330Y2393330D01*
X740000Y2398330D01*
X753330Y2400000D01*
X770000Y2396670D01*
X781670Y2388330D01*
X785000Y2378330D01*
X783330Y2368330D01*
X776670Y2360000D01*
X743330Y2343330D01*
X728330Y2331670D01*
X718330Y2315000D01*
X715000Y2300000D01*
X785000D01*
G01X870000Y2400000D02*
X856660Y2396670D01*
X846670Y2388330D01*
X840000Y2378330D01*
X835000Y2365000D01*
X833330Y2350000D01*
X835000Y2335000D01*
X840000Y2321670D01*
X846670Y2311660D01*
X856660Y2303330D01*
X870000Y2300000D01*
X883330Y2303330D01*
X893330Y2311660D01*
X900000Y2321670D01*
X905000Y2335000D01*
X906670Y2350000D01*
X905000Y2365000D01*
X900000Y2378330D01*
X893330Y2388330D01*
X883330Y2396670D01*
X870000Y2400000D01*
G01X192530Y2491230D02*
Y2591230D01*
X234190D01*
X247530Y2586230D01*
X255860Y2579560D01*
X259190Y2566230D01*
X255860Y2552900D01*
X245860Y2544560D01*
X234190Y2539560D01*
X192530D01*
G01X234190D02*
X259190Y2491230D01*
G01X314190Y2574560D02*
X324190Y2584560D01*
X335860Y2589560D01*
X349190Y2591230D01*
X365860Y2587900D01*
X377530Y2579560D01*
X380860Y2569560D01*
X379190Y2559560D01*
X372530Y2551230D01*
X339190Y2534560D01*
X324190Y2522900D01*
X314190Y2506230D01*
X310860Y2491230D01*
X380860D01*
G01X465860Y2591230D02*
X452520Y2587900D01*
X442530Y2579560D01*
X435860Y2569560D01*
X430860Y2556230D01*
X429190Y2541230D01*
X430860Y2526230D01*
X435860Y2512900D01*
X442530Y2502890D01*
X452520Y2494560D01*
X465860Y2491230D01*
X479190Y2494560D01*
X489190Y2502890D01*
X495860Y2512900D01*
X500860Y2526230D01*
X502530Y2541230D01*
X500860Y2556230D01*
X495860Y2569560D01*
X489190Y2579560D01*
X479190Y2587900D01*
X465860Y2591230D01*
G01X192530Y2491230D02*
Y2591230D01*
X234190D01*
X247530Y2586230D01*
X255860Y2579560D01*
X259190Y2566230D01*
X255860Y2552900D01*
X245860Y2544560D01*
X234190Y2539560D01*
X192530D01*
G01X234190D02*
X259190Y2491230D01*
G01X314190Y2574560D02*
X324190Y2584560D01*
X335860Y2589560D01*
X349190Y2591230D01*
X365860Y2587900D01*
X377530Y2579560D01*
X380860Y2569560D01*
X379190Y2559560D01*
X372530Y2551230D01*
X339190Y2534560D01*
X324190Y2522900D01*
X314190Y2506230D01*
X310860Y2491230D01*
X380860D01*
G01X465860Y2591230D02*
X452520Y2587900D01*
X442530Y2579560D01*
X435860Y2569560D01*
X430860Y2556230D01*
X429190Y2541230D01*
X430860Y2526230D01*
X435860Y2512900D01*
X442530Y2502890D01*
X452520Y2494560D01*
X465860Y2491230D01*
X479190Y2494560D01*
X489190Y2502890D01*
X495860Y2512900D01*
X500860Y2526230D01*
X502530Y2541230D01*
X500860Y2556230D01*
X495860Y2569560D01*
X489190Y2579560D01*
X479190Y2587900D01*
X465860Y2591230D01*
G01X192530Y2491230D02*
Y2591230D01*
X234190D01*
X247530Y2586230D01*
X255860Y2579560D01*
X259190Y2566230D01*
X255860Y2552900D01*
X245860Y2544560D01*
X234190Y2539560D01*
X192530D01*
G01X234190D02*
X259190Y2491230D01*
G01X314190Y2574560D02*
X324190Y2584560D01*
X335860Y2589560D01*
X349190Y2591230D01*
X365860Y2587900D01*
X377530Y2579560D01*
X380860Y2569560D01*
X379190Y2559560D01*
X372530Y2551230D01*
X339190Y2534560D01*
X324190Y2522900D01*
X314190Y2506230D01*
X310860Y2491230D01*
X380860D01*
G01X465860Y2591230D02*
X452520Y2587900D01*
X442530Y2579560D01*
X435860Y2569560D01*
X430860Y2556230D01*
X429190Y2541230D01*
X430860Y2526230D01*
X435860Y2512900D01*
X442530Y2502890D01*
X452520Y2494560D01*
X465860Y2491230D01*
X479190Y2494560D01*
X489190Y2502890D01*
X495860Y2512900D01*
X500860Y2526230D01*
X502530Y2541230D01*
X500860Y2556230D01*
X495860Y2569560D01*
X489190Y2579560D01*
X479190Y2587900D01*
X465860Y2591230D01*
G01X610000Y3740000D02*
X611670Y3753340D01*
X618330Y3765000D01*
X628330Y3775000D01*
X640000Y3781670D01*
X653330Y3785000D01*
X666670D01*
X680000Y3781670D01*
X691670Y3775000D01*
X701670Y3765000D01*
X708330Y3753340D01*
X710000Y3740000D01*
X708330Y3726670D01*
X701670Y3715000D01*
X691670Y3705000D01*
X680000Y3698330D01*
X666670Y3695000D01*
X653330D01*
X640000Y3698330D01*
X628330Y3705000D01*
X618330Y3715000D01*
X611670Y3726670D01*
X610000Y3740000D01*
G01X636670Y3726670D02*
X610000Y3706670D01*
G01X693330Y3651670D02*
X703330Y3641670D01*
X708330Y3630000D01*
X710000Y3616670D01*
X706670Y3600000D01*
X698330Y3588330D01*
X688330Y3585000D01*
X678330Y3586670D01*
X670000Y3593330D01*
X653330Y3626670D01*
X641670Y3641670D01*
X625000Y3651670D01*
X610000Y3655000D01*
Y3585000D01*
G01X630000Y3536670D02*
X618330Y3526670D01*
X611670Y3513340D01*
X610000Y3498330D01*
X611670Y3485000D01*
X620000Y3471670D01*
X630000Y3463330D01*
X640000Y3461670D01*
X651660Y3465000D01*
X660000Y3476670D01*
X663330Y3488330D01*
Y3503330D01*
G01Y3488330D02*
X668330Y3478330D01*
X676660Y3470000D01*
X686670Y3466670D01*
X696670Y3470000D01*
X705000Y3478330D01*
X710000Y3493330D01*
X708330Y3508330D01*
X701670Y3523330D01*
G01X620000Y3740000D02*
X621670Y3753340D01*
X628330Y3765000D01*
X638330Y3775000D01*
X650000Y3781670D01*
X663330Y3785000D01*
X676670D01*
X690000Y3781670D01*
X701670Y3775000D01*
X711670Y3765000D01*
X718330Y3753340D01*
X720000Y3740000D01*
X718330Y3726670D01*
X711670Y3715000D01*
X701670Y3705000D01*
X690000Y3698330D01*
X676670Y3695000D01*
X663330D01*
X650000Y3698330D01*
X638330Y3705000D01*
X628330Y3715000D01*
X621670Y3726670D01*
X620000Y3740000D01*
G01X646670Y3726670D02*
X620000Y3706670D01*
G01X703330Y3651670D02*
X713330Y3641670D01*
X718330Y3630000D01*
X720000Y3616670D01*
X716670Y3600000D01*
X708330Y3588330D01*
X698330Y3585000D01*
X688330Y3586670D01*
X680000Y3593330D01*
X663330Y3626670D01*
X651670Y3641670D01*
X635000Y3651670D01*
X620000Y3655000D01*
Y3585000D01*
G01X640000Y3536670D02*
X628330Y3526670D01*
X621670Y3513340D01*
X620000Y3498330D01*
X621670Y3485000D01*
X630000Y3471670D01*
X640000Y3463330D01*
X650000Y3461670D01*
X661660Y3465000D01*
X670000Y3476670D01*
X673330Y3488330D01*
Y3503330D01*
G01Y3488330D02*
X678330Y3478330D01*
X686660Y3470000D01*
X696670Y3466670D01*
X706670Y3470000D01*
X715000Y3478330D01*
X720000Y3493330D01*
X718330Y3508330D01*
X711670Y3523330D01*
G01X141230Y3867470D02*
X241230D01*
Y3825810D01*
X236230Y3812470D01*
X229560Y3804140D01*
X216230Y3800810D01*
X202900Y3804140D01*
X194560Y3814140D01*
X189560Y3825810D01*
Y3867470D01*
G01Y3825810D02*
X141230Y3800810D01*
G01X224560Y3745810D02*
X234560Y3735810D01*
X239560Y3724140D01*
X241230Y3710810D01*
X237900Y3694140D01*
X229560Y3682470D01*
X219560Y3679140D01*
X209560Y3680810D01*
X201230Y3687470D01*
X184560Y3720810D01*
X172900Y3735810D01*
X156230Y3745810D01*
X141230Y3749140D01*
Y3679140D01*
G01X161230Y3630810D02*
X149560Y3620810D01*
X142900Y3607480D01*
X141230Y3592470D01*
X142900Y3579140D01*
X151230Y3565810D01*
X161230Y3557470D01*
X171230Y3555810D01*
X182890Y3559140D01*
X191230Y3570810D01*
X194560Y3582470D01*
Y3597470D01*
G01Y3582470D02*
X199560Y3572470D01*
X207890Y3564140D01*
X217900Y3560810D01*
X227900Y3564140D01*
X236230Y3572470D01*
X241230Y3587470D01*
X239560Y3602470D01*
X232900Y3617470D01*
G01X141230Y3867470D02*
X241230D01*
Y3825810D01*
X236230Y3812470D01*
X229560Y3804140D01*
X216230Y3800810D01*
X202900Y3804140D01*
X194560Y3814140D01*
X189560Y3825810D01*
Y3867470D01*
G01Y3825810D02*
X141230Y3800810D01*
G01X224560Y3745810D02*
X234560Y3735810D01*
X239560Y3724140D01*
X241230Y3710810D01*
X237900Y3694140D01*
X229560Y3682470D01*
X219560Y3679140D01*
X209560Y3680810D01*
X201230Y3687470D01*
X184560Y3720810D01*
X172900Y3735810D01*
X156230Y3745810D01*
X141230Y3749140D01*
Y3679140D01*
G01X161230Y3630810D02*
X149560Y3620810D01*
X142900Y3607480D01*
X141230Y3592470D01*
X142900Y3579140D01*
X151230Y3565810D01*
X161230Y3557470D01*
X171230Y3555810D01*
X182890Y3559140D01*
X191230Y3570810D01*
X194560Y3582470D01*
Y3597470D01*
G01Y3582470D02*
X199560Y3572470D01*
X207890Y3564140D01*
X217900Y3560810D01*
X227900Y3564140D01*
X236230Y3572470D01*
X241230Y3587470D01*
X239560Y3602470D01*
X232900Y3617470D01*
G01X141230Y3867470D02*
X241230D01*
Y3825810D01*
X236230Y3812470D01*
X229560Y3804140D01*
X216230Y3800810D01*
X202900Y3804140D01*
X194560Y3814140D01*
X189560Y3825810D01*
Y3867470D01*
G01Y3825810D02*
X141230Y3800810D01*
G01X224560Y3745810D02*
X234560Y3735810D01*
X239560Y3724140D01*
X241230Y3710810D01*
X237900Y3694140D01*
X229560Y3682470D01*
X219560Y3679140D01*
X209560Y3680810D01*
X201230Y3687470D01*
X184560Y3720810D01*
X172900Y3735810D01*
X156230Y3745810D01*
X141230Y3749140D01*
Y3679140D01*
G01X161230Y3630810D02*
X149560Y3620810D01*
X142900Y3607480D01*
X141230Y3592470D01*
X142900Y3579140D01*
X151230Y3565810D01*
X161230Y3557470D01*
X171230Y3555810D01*
X182890Y3559140D01*
X191230Y3570810D01*
X194560Y3582470D01*
Y3597470D01*
G01Y3582470D02*
X199560Y3572470D01*
X207890Y3564140D01*
X217900Y3560810D01*
X227900Y3564140D01*
X236230Y3572470D01*
X241230Y3587470D01*
X239560Y3602470D01*
X232900Y3617470D01*
G01X1226670Y300000D02*
Y400000D01*
X1268330D01*
X1281670Y395000D01*
X1290000Y388330D01*
X1293330Y375000D01*
X1290000Y361670D01*
X1280000Y353330D01*
X1268330Y348330D01*
X1226670D01*
G01X1268330D02*
X1293330Y300000D01*
G01X1343330Y320000D02*
X1353330Y308330D01*
X1366660Y301670D01*
X1381670Y300000D01*
X1395000Y301670D01*
X1408330Y310000D01*
X1416670Y320000D01*
X1418330Y330000D01*
X1415000Y341660D01*
X1403330Y350000D01*
X1391670Y353330D01*
X1376670D01*
G01X1391670D02*
X1401670Y358330D01*
X1410000Y366660D01*
X1413330Y376670D01*
X1410000Y386670D01*
X1401670Y395000D01*
X1386670Y400000D01*
X1371670Y398330D01*
X1356670Y391670D01*
G01X1463330Y320000D02*
X1473330Y308330D01*
X1486660Y301670D01*
X1501670Y300000D01*
X1515000Y301670D01*
X1528330Y310000D01*
X1536670Y320000D01*
X1538330Y330000D01*
X1535000Y341660D01*
X1523330Y350000D01*
X1511670Y353330D01*
X1496670D01*
G01X1511670D02*
X1521670Y358330D01*
X1530000Y366660D01*
X1533330Y376670D01*
X1530000Y386670D01*
X1521670Y395000D01*
X1506670Y400000D01*
X1491670Y398330D01*
X1476670Y391670D01*
G01X1227900Y294140D02*
Y394140D01*
X1269560D01*
X1282900Y389140D01*
X1291230Y382470D01*
X1294560Y369140D01*
X1291230Y355810D01*
X1281230Y347470D01*
X1269560Y342470D01*
X1227900D01*
G01X1269560D02*
X1294560Y294140D01*
G01X1344560Y314140D02*
X1354560Y302470D01*
X1367890Y295810D01*
X1382900Y294140D01*
X1396230Y295810D01*
X1409560Y304140D01*
X1417900Y314140D01*
X1419560Y324140D01*
X1416230Y335800D01*
X1404560Y344140D01*
X1392900Y347470D01*
X1377900D01*
G01X1392900D02*
X1402900Y352470D01*
X1411230Y360800D01*
X1414560Y370810D01*
X1411230Y380810D01*
X1402900Y389140D01*
X1387900Y394140D01*
X1372900Y392470D01*
X1357900Y385810D01*
G01X1464560Y314140D02*
X1474560Y302470D01*
X1487890Y295810D01*
X1502900Y294140D01*
X1516230Y295810D01*
X1529560Y304140D01*
X1537900Y314140D01*
X1539560Y324140D01*
X1536230Y335800D01*
X1524560Y344140D01*
X1512900Y347470D01*
X1497900D01*
G01X1512900D02*
X1522900Y352470D01*
X1531230Y360800D01*
X1534560Y370810D01*
X1531230Y380810D01*
X1522900Y389140D01*
X1507900Y394140D01*
X1492900Y392470D01*
X1477900Y385810D01*
G01X1227900Y294140D02*
Y394140D01*
X1269560D01*
X1282900Y389140D01*
X1291230Y382470D01*
X1294560Y369140D01*
X1291230Y355810D01*
X1281230Y347470D01*
X1269560Y342470D01*
X1227900D01*
G01X1269560D02*
X1294560Y294140D01*
G01X1344560Y314140D02*
X1354560Y302470D01*
X1367890Y295810D01*
X1382900Y294140D01*
X1396230Y295810D01*
X1409560Y304140D01*
X1417900Y314140D01*
X1419560Y324140D01*
X1416230Y335800D01*
X1404560Y344140D01*
X1392900Y347470D01*
X1377900D01*
G01X1392900D02*
X1402900Y352470D01*
X1411230Y360800D01*
X1414560Y370810D01*
X1411230Y380810D01*
X1402900Y389140D01*
X1387900Y394140D01*
X1372900Y392470D01*
X1357900Y385810D01*
G01X1464560Y314140D02*
X1474560Y302470D01*
X1487890Y295810D01*
X1502900Y294140D01*
X1516230Y295810D01*
X1529560Y304140D01*
X1537900Y314140D01*
X1539560Y324140D01*
X1536230Y335800D01*
X1524560Y344140D01*
X1512900Y347470D01*
X1497900D01*
G01X1512900D02*
X1522900Y352470D01*
X1531230Y360800D01*
X1534560Y370810D01*
X1531230Y380810D01*
X1522900Y389140D01*
X1507900Y394140D01*
X1492900Y392470D01*
X1477900Y385810D01*
G01X1310000Y763330D02*
X1410000D01*
Y721670D01*
X1405000Y708330D01*
X1398330Y700000D01*
X1385000Y696670D01*
X1371670Y700000D01*
X1363330Y710000D01*
X1358330Y721670D01*
Y763330D01*
G01Y721670D02*
X1310000Y696670D01*
G01X1393330Y641670D02*
X1403330Y631670D01*
X1408330Y620000D01*
X1410000Y606670D01*
X1406670Y590000D01*
X1398330Y578330D01*
X1388330Y575000D01*
X1378330Y576670D01*
X1370000Y583330D01*
X1353330Y616670D01*
X1341670Y631670D01*
X1325000Y641670D01*
X1310000Y645000D01*
Y575000D01*
G01Y490000D02*
X1410000D01*
X1390000Y510000D01*
G01X1310000D02*
Y470000D01*
G01X1301230Y777470D02*
X1401230D01*
Y735810D01*
X1396230Y722470D01*
X1389560Y714140D01*
X1376230Y710810D01*
X1362900Y714140D01*
X1354560Y724140D01*
X1349560Y735810D01*
Y777470D01*
G01Y735810D02*
X1301230Y710810D01*
G01X1384560Y655810D02*
X1394560Y645810D01*
X1399560Y634140D01*
X1401230Y620810D01*
X1397900Y604140D01*
X1389560Y592470D01*
X1379560Y589140D01*
X1369560Y590810D01*
X1361230Y597470D01*
X1344560Y630810D01*
X1332900Y645810D01*
X1316230Y655810D01*
X1301230Y659140D01*
Y589140D01*
G01Y504140D02*
X1401230D01*
X1381230Y524140D01*
G01X1301230D02*
Y484140D01*
G01Y777470D02*
X1401230D01*
Y735810D01*
X1396230Y722470D01*
X1389560Y714140D01*
X1376230Y710810D01*
X1362900Y714140D01*
X1354560Y724140D01*
X1349560Y735810D01*
Y777470D01*
G01Y735810D02*
X1301230Y710810D01*
G01X1384560Y655810D02*
X1394560Y645810D01*
X1399560Y634140D01*
X1401230Y620810D01*
X1397900Y604140D01*
X1389560Y592470D01*
X1379560Y589140D01*
X1369560Y590810D01*
X1361230Y597470D01*
X1344560Y630810D01*
X1332900Y645810D01*
X1316230Y655810D01*
X1301230Y659140D01*
Y589140D01*
G01Y504140D02*
X1401230D01*
X1381230Y524140D01*
G01X1301230D02*
Y484140D01*
G01X1022100Y1897320D02*
X1023770Y1910660D01*
X1030430Y1922320D01*
X1040430Y1932320D01*
X1052100Y1938990D01*
X1065430Y1942320D01*
X1078770D01*
X1092100Y1938990D01*
X1103770Y1932320D01*
X1113770Y1922320D01*
X1120430Y1910660D01*
X1122100Y1897320D01*
X1120430Y1883990D01*
X1113770Y1872320D01*
X1103770Y1862320D01*
X1092100Y1855650D01*
X1078770Y1852320D01*
X1065430D01*
X1052100Y1855650D01*
X1040430Y1862320D01*
X1030430Y1872320D01*
X1023770Y1883990D01*
X1022100Y1897320D01*
G01X1048770Y1883990D02*
X1022100Y1863990D01*
G01X1105430Y1808990D02*
X1115430Y1798990D01*
X1120430Y1787320D01*
X1122100Y1773990D01*
X1118770Y1757320D01*
X1110430Y1745650D01*
X1100430Y1742320D01*
X1090430Y1743990D01*
X1082100Y1750650D01*
X1065430Y1783990D01*
X1053770Y1798990D01*
X1037100Y1808990D01*
X1022100Y1812320D01*
Y1742320D01*
G01X1030000Y1900000D02*
X1031670Y1913340D01*
X1038330Y1925000D01*
X1048330Y1935000D01*
X1060000Y1941670D01*
X1073330Y1945000D01*
X1086670D01*
X1100000Y1941670D01*
X1111670Y1935000D01*
X1121670Y1925000D01*
X1128330Y1913340D01*
X1130000Y1900000D01*
X1128330Y1886670D01*
X1121670Y1875000D01*
X1111670Y1865000D01*
X1100000Y1858330D01*
X1086670Y1855000D01*
X1073330D01*
X1060000Y1858330D01*
X1048330Y1865000D01*
X1038330Y1875000D01*
X1031670Y1886670D01*
X1030000Y1900000D01*
G01X1056670Y1886670D02*
X1030000Y1866670D01*
G01X1113330Y1811670D02*
X1123330Y1801670D01*
X1128330Y1790000D01*
X1130000Y1776670D01*
X1126670Y1760000D01*
X1118330Y1748330D01*
X1108330Y1745000D01*
X1098330Y1746670D01*
X1090000Y1753330D01*
X1073330Y1786670D01*
X1061670Y1801670D01*
X1045000Y1811670D01*
X1030000Y1815000D01*
Y1745000D01*
G01X1186670Y1430000D02*
Y1530000D01*
X1228330D01*
X1241670Y1525000D01*
X1250000Y1518330D01*
X1253330Y1505000D01*
X1250000Y1491670D01*
X1240000Y1483330D01*
X1228330Y1478330D01*
X1186670D01*
G01X1228330D02*
X1253330Y1430000D01*
G01X1303330Y1450000D02*
X1313330Y1438330D01*
X1326660Y1431670D01*
X1341670Y1430000D01*
X1355000Y1431670D01*
X1368330Y1440000D01*
X1376670Y1450000D01*
X1378330Y1460000D01*
X1375000Y1471660D01*
X1363330Y1480000D01*
X1351670Y1483330D01*
X1336670D01*
G01X1351670D02*
X1361670Y1488330D01*
X1370000Y1496660D01*
X1373330Y1506670D01*
X1370000Y1516670D01*
X1361670Y1525000D01*
X1346670Y1530000D01*
X1331670Y1528330D01*
X1316670Y1521670D01*
G01X1428330Y1513330D02*
X1438330Y1523330D01*
X1450000Y1528330D01*
X1463330Y1530000D01*
X1480000Y1526670D01*
X1491670Y1518330D01*
X1495000Y1508330D01*
X1493330Y1498330D01*
X1486670Y1490000D01*
X1453330Y1473330D01*
X1438330Y1461670D01*
X1428330Y1445000D01*
X1425000Y1430000D01*
X1495000D01*
G01X1182530Y1431230D02*
Y1531230D01*
X1224190D01*
X1237530Y1526230D01*
X1245860Y1519560D01*
X1249190Y1506230D01*
X1245860Y1492900D01*
X1235860Y1484560D01*
X1224190Y1479560D01*
X1182530D01*
G01X1224190D02*
X1249190Y1431230D01*
G01X1299190Y1451230D02*
X1309190Y1439560D01*
X1322520Y1432900D01*
X1337530Y1431230D01*
X1350860Y1432900D01*
X1364190Y1441230D01*
X1372530Y1451230D01*
X1374190Y1461230D01*
X1370860Y1472890D01*
X1359190Y1481230D01*
X1347530Y1484560D01*
X1332530D01*
G01X1347530D02*
X1357530Y1489560D01*
X1365860Y1497890D01*
X1369190Y1507900D01*
X1365860Y1517900D01*
X1357530Y1526230D01*
X1342530Y1531230D01*
X1327530Y1529560D01*
X1312530Y1522900D01*
G01X1424190Y1514560D02*
X1434190Y1524560D01*
X1445860Y1529560D01*
X1459190Y1531230D01*
X1475860Y1527900D01*
X1487530Y1519560D01*
X1490860Y1509560D01*
X1489190Y1499560D01*
X1482530Y1491230D01*
X1449190Y1474560D01*
X1434190Y1462900D01*
X1424190Y1446230D01*
X1420860Y1431230D01*
X1490860D01*
G01X1182530D02*
Y1531230D01*
X1224190D01*
X1237530Y1526230D01*
X1245860Y1519560D01*
X1249190Y1506230D01*
X1245860Y1492900D01*
X1235860Y1484560D01*
X1224190Y1479560D01*
X1182530D01*
G01X1224190D02*
X1249190Y1431230D01*
G01X1299190Y1451230D02*
X1309190Y1439560D01*
X1322520Y1432900D01*
X1337530Y1431230D01*
X1350860Y1432900D01*
X1364190Y1441230D01*
X1372530Y1451230D01*
X1374190Y1461230D01*
X1370860Y1472890D01*
X1359190Y1481230D01*
X1347530Y1484560D01*
X1332530D01*
G01X1347530D02*
X1357530Y1489560D01*
X1365860Y1497890D01*
X1369190Y1507900D01*
X1365860Y1517900D01*
X1357530Y1526230D01*
X1342530Y1531230D01*
X1327530Y1529560D01*
X1312530Y1522900D01*
G01X1424190Y1514560D02*
X1434190Y1524560D01*
X1445860Y1529560D01*
X1459190Y1531230D01*
X1475860Y1527900D01*
X1487530Y1519560D01*
X1490860Y1509560D01*
X1489190Y1499560D01*
X1482530Y1491230D01*
X1449190Y1474560D01*
X1434190Y1462900D01*
X1424190Y1446230D01*
X1420860Y1431230D01*
X1490860D01*
G01X1280000Y1950000D02*
X1266660Y1951670D01*
X1255000Y1958330D01*
X1245000Y1968330D01*
X1238330Y1980000D01*
X1235000Y1993330D01*
Y2006670D01*
X1238330Y2020000D01*
X1245000Y2031670D01*
X1255000Y2041670D01*
X1266660Y2048330D01*
X1280000Y2050000D01*
X1293330Y2048330D01*
X1305000Y2041670D01*
X1315000Y2031670D01*
X1321670Y2020000D01*
X1325000Y2006670D01*
Y1993330D01*
X1321670Y1980000D01*
X1315000Y1968330D01*
X1305000Y1958330D01*
X1293330Y1951670D01*
X1280000Y1950000D01*
G01X1293330Y1976670D02*
X1313330Y1950000D01*
G01X1368330Y2033330D02*
X1378330Y2043330D01*
X1390000Y2048330D01*
X1403330Y2050000D01*
X1420000Y2046670D01*
X1431670Y2038330D01*
X1435000Y2028330D01*
X1433330Y2018330D01*
X1426670Y2010000D01*
X1393330Y1993330D01*
X1378330Y1981670D01*
X1368330Y1965000D01*
X1365000Y1950000D01*
X1435000D01*
G01X1520000D02*
Y2050000D01*
X1500000Y2030000D01*
G01Y1950000D02*
X1540000D01*
G01X1280000D02*
X1266660Y1951670D01*
X1255000Y1958330D01*
X1245000Y1968330D01*
X1238330Y1980000D01*
X1235000Y1993330D01*
Y2006670D01*
X1238330Y2020000D01*
X1245000Y2031670D01*
X1255000Y2041670D01*
X1266660Y2048330D01*
X1280000Y2050000D01*
X1293330Y2048330D01*
X1305000Y2041670D01*
X1315000Y2031670D01*
X1321670Y2020000D01*
X1325000Y2006670D01*
Y1993330D01*
X1321670Y1980000D01*
X1315000Y1968330D01*
X1305000Y1958330D01*
X1293330Y1951670D01*
X1280000Y1950000D01*
G01X1293330Y1976670D02*
X1313330Y1950000D01*
G01X1368330Y2033330D02*
X1378330Y2043330D01*
X1390000Y2048330D01*
X1403330Y2050000D01*
X1420000Y2046670D01*
X1431670Y2038330D01*
X1435000Y2028330D01*
X1433330Y2018330D01*
X1426670Y2010000D01*
X1393330Y1993330D01*
X1378330Y1981670D01*
X1368330Y1965000D01*
X1365000Y1950000D01*
X1435000D01*
G01X1520000D02*
Y2050000D01*
X1500000Y2030000D01*
G01Y1950000D02*
X1540000D01*
G01X700000Y2900000D02*
X686660Y2901670D01*
X675000Y2908330D01*
X665000Y2918330D01*
X658330Y2930000D01*
X655000Y2943330D01*
Y2956670D01*
X658330Y2970000D01*
X665000Y2981670D01*
X675000Y2991670D01*
X686660Y2998330D01*
X700000Y3000000D01*
X713330Y2998330D01*
X725000Y2991670D01*
X735000Y2981670D01*
X741670Y2970000D01*
X745000Y2956670D01*
Y2943330D01*
X741670Y2930000D01*
X735000Y2918330D01*
X725000Y2908330D01*
X713330Y2901670D01*
X700000Y2900000D01*
G01X713330Y2926670D02*
X733330Y2900000D01*
G01X820000D02*
Y3000000D01*
X800000Y2980000D01*
G01Y2900000D02*
X840000D01*
G01X700000D02*
X686660Y2901670D01*
X675000Y2908330D01*
X665000Y2918330D01*
X658330Y2930000D01*
X655000Y2943330D01*
Y2956670D01*
X658330Y2970000D01*
X665000Y2981670D01*
X675000Y2991670D01*
X686660Y2998330D01*
X700000Y3000000D01*
X713330Y2998330D01*
X725000Y2991670D01*
X735000Y2981670D01*
X741670Y2970000D01*
X745000Y2956670D01*
Y2943330D01*
X741670Y2930000D01*
X735000Y2918330D01*
X725000Y2908330D01*
X713330Y2901670D01*
X700000Y2900000D01*
G01X713330Y2926670D02*
X733330Y2900000D01*
G01X820000D02*
Y3000000D01*
X800000Y2980000D01*
G01Y2900000D02*
X840000D01*
G01X762530Y2831230D02*
Y2931230D01*
X804190D01*
X817530Y2926230D01*
X825860Y2919560D01*
X829190Y2906230D01*
X825860Y2892900D01*
X815860Y2884560D01*
X804190Y2879560D01*
X762530D01*
G01X804190D02*
X829190Y2831230D01*
G01X879190Y2851230D02*
X889190Y2839560D01*
X902520Y2832900D01*
X917530Y2831230D01*
X930860Y2832900D01*
X944190Y2841230D01*
X952530Y2851230D01*
X954190Y2861230D01*
X950860Y2872890D01*
X939190Y2881230D01*
X927530Y2884560D01*
X912530D01*
G01X927530D02*
X937530Y2889560D01*
X945860Y2897890D01*
X949190Y2907900D01*
X945860Y2917900D01*
X937530Y2926230D01*
X922530Y2931230D01*
X907530Y2929560D01*
X892530Y2922900D01*
G01X1035860Y2831230D02*
Y2931230D01*
X1015860Y2911230D01*
G01Y2831230D02*
X1055860D01*
G01X762530D02*
Y2931230D01*
X804190D01*
X817530Y2926230D01*
X825860Y2919560D01*
X829190Y2906230D01*
X825860Y2892900D01*
X815860Y2884560D01*
X804190Y2879560D01*
X762530D01*
G01X804190D02*
X829190Y2831230D01*
G01X879190Y2851230D02*
X889190Y2839560D01*
X902520Y2832900D01*
X917530Y2831230D01*
X930860Y2832900D01*
X944190Y2841230D01*
X952530Y2851230D01*
X954190Y2861230D01*
X950860Y2872890D01*
X939190Y2881230D01*
X927530Y2884560D01*
X912530D01*
G01X927530D02*
X937530Y2889560D01*
X945860Y2897890D01*
X949190Y2907900D01*
X945860Y2917900D01*
X937530Y2926230D01*
X922530Y2931230D01*
X907530Y2929560D01*
X892530Y2922900D01*
G01X1035860Y2831230D02*
Y2931230D01*
X1015860Y2911230D01*
G01Y2831230D02*
X1055860D01*
G01X762530D02*
Y2931230D01*
X804190D01*
X817530Y2926230D01*
X825860Y2919560D01*
X829190Y2906230D01*
X825860Y2892900D01*
X815860Y2884560D01*
X804190Y2879560D01*
X762530D01*
G01X804190D02*
X829190Y2831230D01*
G01X879190Y2851230D02*
X889190Y2839560D01*
X902520Y2832900D01*
X917530Y2831230D01*
X930860Y2832900D01*
X944190Y2841230D01*
X952530Y2851230D01*
X954190Y2861230D01*
X950860Y2872890D01*
X939190Y2881230D01*
X927530Y2884560D01*
X912530D01*
G01X927530D02*
X937530Y2889560D01*
X945860Y2897890D01*
X949190Y2907900D01*
X945860Y2917900D01*
X937530Y2926230D01*
X922530Y2931230D01*
X907530Y2929560D01*
X892530Y2922900D01*
G01X1035860Y2831230D02*
Y2931230D01*
X1015860Y2911230D01*
G01Y2831230D02*
X1055860D01*
G01X1280810Y3050440D02*
X1270810Y3055440D01*
X1259140Y3058770D01*
X1245810D01*
X1230800Y3053770D01*
X1219140Y3045440D01*
X1210810Y3035440D01*
X1204140Y3018770D01*
X1202470Y3003770D01*
X1205810Y2988770D01*
X1210810Y2978770D01*
X1220810Y2968770D01*
X1232470Y2962100D01*
X1244140Y2958770D01*
X1255810D01*
X1267470Y2962100D01*
X1277470Y2967100D01*
X1285810Y2973770D01*
G01X1364140Y2958770D02*
Y3058770D01*
X1344140Y3038770D01*
G01Y2958770D02*
X1384140D01*
G01X1480810D02*
X1484140Y2980440D01*
X1489140Y2998770D01*
X1495810Y3015440D01*
X1504140Y3033770D01*
X1517470Y3058770D01*
X1450810D01*
G01X1280810Y3050440D02*
X1270810Y3055440D01*
X1259140Y3058770D01*
X1245810D01*
X1230800Y3053770D01*
X1219140Y3045440D01*
X1210810Y3035440D01*
X1204140Y3018770D01*
X1202470Y3003770D01*
X1205810Y2988770D01*
X1210810Y2978770D01*
X1220810Y2968770D01*
X1232470Y2962100D01*
X1244140Y2958770D01*
X1255810D01*
X1267470Y2962100D01*
X1277470Y2967100D01*
X1285810Y2973770D01*
G01X1364140Y2958770D02*
Y3058770D01*
X1344140Y3038770D01*
G01Y2958770D02*
X1384140D01*
G01X1480810D02*
X1484140Y2980440D01*
X1489140Y2998770D01*
X1495810Y3015440D01*
X1504140Y3033770D01*
X1517470Y3058770D01*
X1450810D01*
G01X1280810Y3050440D02*
X1270810Y3055440D01*
X1259140Y3058770D01*
X1245810D01*
X1230800Y3053770D01*
X1219140Y3045440D01*
X1210810Y3035440D01*
X1204140Y3018770D01*
X1202470Y3003770D01*
X1205810Y2988770D01*
X1210810Y2978770D01*
X1220810Y2968770D01*
X1232470Y2962100D01*
X1244140Y2958770D01*
X1255810D01*
X1267470Y2962100D01*
X1277470Y2967100D01*
X1285810Y2973770D01*
G01X1364140Y2958770D02*
Y3058770D01*
X1344140Y3038770D01*
G01Y2958770D02*
X1384140D01*
G01X1480810D02*
X1484140Y2980440D01*
X1489140Y2998770D01*
X1495810Y3015440D01*
X1504140Y3033770D01*
X1517470Y3058770D01*
X1450810D01*
G01X1740000Y930000D02*
X1726660Y931670D01*
X1715000Y938330D01*
X1705000Y948330D01*
X1698330Y960000D01*
X1695000Y973330D01*
Y986670D01*
X1698330Y1000000D01*
X1705000Y1011670D01*
X1715000Y1021670D01*
X1726660Y1028330D01*
X1740000Y1030000D01*
X1753330Y1028330D01*
X1765000Y1021670D01*
X1775000Y1011670D01*
X1781670Y1000000D01*
X1785000Y986670D01*
Y973330D01*
X1781670Y960000D01*
X1775000Y948330D01*
X1765000Y938330D01*
X1753330Y931670D01*
X1740000Y930000D01*
G01X1753330Y956670D02*
X1773330Y930000D01*
G01X1823330Y950000D02*
X1833330Y938330D01*
X1846660Y931670D01*
X1861670Y930000D01*
X1875000Y931670D01*
X1888330Y940000D01*
X1896670Y950000D01*
X1898330Y960000D01*
X1895000Y971660D01*
X1883330Y980000D01*
X1871670Y983330D01*
X1856670D01*
G01X1871670D02*
X1881670Y988330D01*
X1890000Y996660D01*
X1893330Y1006670D01*
X1890000Y1016670D01*
X1881670Y1025000D01*
X1866670Y1030000D01*
X1851670Y1028330D01*
X1836670Y1021670D01*
G01X1860000Y860000D02*
X1846660Y861670D01*
X1835000Y868330D01*
X1825000Y878330D01*
X1818330Y890000D01*
X1815000Y903330D01*
Y916670D01*
X1818330Y930000D01*
X1825000Y941670D01*
X1835000Y951670D01*
X1846660Y958330D01*
X1860000Y960000D01*
X1873330Y958330D01*
X1885000Y951670D01*
X1895000Y941670D01*
X1901670Y930000D01*
X1905000Y916670D01*
Y903330D01*
X1901670Y890000D01*
X1895000Y878330D01*
X1885000Y868330D01*
X1873330Y861670D01*
X1860000Y860000D01*
G01X1873330Y886670D02*
X1893330Y860000D01*
G01X1980000D02*
Y960000D01*
X1960000Y940000D01*
G01Y860000D02*
X2000000D01*
G01X2100000D02*
Y960000D01*
X2080000Y940000D01*
G01Y860000D02*
X2120000D01*
G01X1470000Y870000D02*
X1456660Y871670D01*
X1445000Y878330D01*
X1435000Y888330D01*
X1428330Y900000D01*
X1425000Y913330D01*
Y926670D01*
X1428330Y940000D01*
X1435000Y951670D01*
X1445000Y961670D01*
X1456660Y968330D01*
X1470000Y970000D01*
X1483330Y968330D01*
X1495000Y961670D01*
X1505000Y951670D01*
X1511670Y940000D01*
X1515000Y926670D01*
Y913330D01*
X1511670Y900000D01*
X1505000Y888330D01*
X1495000Y878330D01*
X1483330Y871670D01*
X1470000Y870000D01*
G01X1483330Y896670D02*
X1503330Y870000D01*
G01X1558330Y953330D02*
X1568330Y963330D01*
X1580000Y968330D01*
X1593330Y970000D01*
X1610000Y966670D01*
X1621670Y958330D01*
X1625000Y948330D01*
X1623330Y938330D01*
X1616670Y930000D01*
X1583330Y913330D01*
X1568330Y901670D01*
X1558330Y885000D01*
X1555000Y870000D01*
X1625000D01*
G01X1678330Y953330D02*
X1688330Y963330D01*
X1700000Y968330D01*
X1713330Y970000D01*
X1730000Y966670D01*
X1741670Y958330D01*
X1745000Y948330D01*
X1743330Y938330D01*
X1736670Y930000D01*
X1703330Y913330D01*
X1688330Y901670D01*
X1678330Y885000D01*
X1675000Y870000D01*
X1745000D01*
G01X1470000D02*
X1456660Y871670D01*
X1445000Y878330D01*
X1435000Y888330D01*
X1428330Y900000D01*
X1425000Y913330D01*
Y926670D01*
X1428330Y940000D01*
X1435000Y951670D01*
X1445000Y961670D01*
X1456660Y968330D01*
X1470000Y970000D01*
X1483330Y968330D01*
X1495000Y961670D01*
X1505000Y951670D01*
X1511670Y940000D01*
X1515000Y926670D01*
Y913330D01*
X1511670Y900000D01*
X1505000Y888330D01*
X1495000Y878330D01*
X1483330Y871670D01*
X1470000Y870000D01*
G01X1483330Y896670D02*
X1503330Y870000D01*
G01X1558330Y953330D02*
X1568330Y963330D01*
X1580000Y968330D01*
X1593330Y970000D01*
X1610000Y966670D01*
X1621670Y958330D01*
X1625000Y948330D01*
X1623330Y938330D01*
X1616670Y930000D01*
X1583330Y913330D01*
X1568330Y901670D01*
X1558330Y885000D01*
X1555000Y870000D01*
X1625000D01*
G01X1678330Y953330D02*
X1688330Y963330D01*
X1700000Y968330D01*
X1713330Y970000D01*
X1730000Y966670D01*
X1741670Y958330D01*
X1745000Y948330D01*
X1743330Y938330D01*
X1736670Y930000D01*
X1703330Y913330D01*
X1688330Y901670D01*
X1678330Y885000D01*
X1675000Y870000D01*
X1745000D01*
G01X1661230Y777470D02*
X1761230D01*
Y735810D01*
X1756230Y722470D01*
X1749560Y714140D01*
X1736230Y710810D01*
X1722900Y714140D01*
X1714560Y724140D01*
X1709560Y735810D01*
Y777470D01*
G01Y735810D02*
X1661230Y710810D01*
G01X1744560Y655810D02*
X1754560Y645810D01*
X1759560Y634140D01*
X1761230Y620810D01*
X1757900Y604140D01*
X1749560Y592470D01*
X1739560Y589140D01*
X1729560Y590810D01*
X1721230Y597470D01*
X1704560Y630810D01*
X1692900Y645810D01*
X1676230Y655810D01*
X1661230Y659140D01*
Y589140D01*
G01Y484140D02*
X1761230D01*
X1689560Y545810D01*
Y462470D01*
G01X1661230Y777470D02*
X1761230D01*
Y735810D01*
X1756230Y722470D01*
X1749560Y714140D01*
X1736230Y710810D01*
X1722900Y714140D01*
X1714560Y724140D01*
X1709560Y735810D01*
Y777470D01*
G01Y735810D02*
X1661230Y710810D01*
G01X1744560Y655810D02*
X1754560Y645810D01*
X1759560Y634140D01*
X1761230Y620810D01*
X1757900Y604140D01*
X1749560Y592470D01*
X1739560Y589140D01*
X1729560Y590810D01*
X1721230Y597470D01*
X1704560Y630810D01*
X1692900Y645810D01*
X1676230Y655810D01*
X1661230Y659140D01*
Y589140D01*
G01Y484140D02*
X1761230D01*
X1689560Y545810D01*
Y462470D01*
G01X1661230Y777470D02*
X1761230D01*
Y735810D01*
X1756230Y722470D01*
X1749560Y714140D01*
X1736230Y710810D01*
X1722900Y714140D01*
X1714560Y724140D01*
X1709560Y735810D01*
Y777470D01*
G01Y735810D02*
X1661230Y710810D01*
G01X1744560Y655810D02*
X1754560Y645810D01*
X1759560Y634140D01*
X1761230Y620810D01*
X1757900Y604140D01*
X1749560Y592470D01*
X1739560Y589140D01*
X1729560Y590810D01*
X1721230Y597470D01*
X1704560Y630810D01*
X1692900Y645810D01*
X1676230Y655810D01*
X1661230Y659140D01*
Y589140D01*
G01Y484140D02*
X1761230D01*
X1689560Y545810D01*
Y462470D01*
G01X2081230Y767470D02*
X2181230D01*
Y725810D01*
X2176230Y712470D01*
X2169560Y704140D01*
X2156230Y700810D01*
X2142900Y704140D01*
X2134560Y714140D01*
X2129560Y725810D01*
Y767470D01*
G01Y725810D02*
X2081230Y700810D01*
G01X2164560Y645810D02*
X2174560Y635810D01*
X2179560Y624140D01*
X2181230Y610810D01*
X2177900Y594140D01*
X2169560Y582470D01*
X2159560Y579140D01*
X2149560Y580810D01*
X2141230Y587470D01*
X2124560Y620810D01*
X2112900Y635810D01*
X2096230Y645810D01*
X2081230Y649140D01*
Y579140D01*
G01Y494140D02*
X2082900Y482470D01*
X2087900Y469140D01*
X2096230Y460810D01*
X2107900Y457470D01*
X2119560Y460810D01*
X2129560Y470810D01*
X2134560Y485810D01*
Y502470D01*
X2137900Y512470D01*
X2146230Y520810D01*
X2157900Y524140D01*
X2169560Y519140D01*
X2177900Y507480D01*
X2181230Y494140D01*
X2177900Y480810D01*
X2169560Y469140D01*
X2157900Y464140D01*
X2146230Y467470D01*
X2137900Y475810D01*
X2134560Y485810D01*
Y502470D01*
X2129560Y517470D01*
X2119560Y527470D01*
X2107900Y530810D01*
X2096230Y527470D01*
X2087900Y519140D01*
X2082900Y505810D01*
X2081230Y494140D01*
G01Y767470D02*
X2181230D01*
Y725810D01*
X2176230Y712470D01*
X2169560Y704140D01*
X2156230Y700810D01*
X2142900Y704140D01*
X2134560Y714140D01*
X2129560Y725810D01*
Y767470D01*
G01Y725810D02*
X2081230Y700810D01*
G01X2164560Y645810D02*
X2174560Y635810D01*
X2179560Y624140D01*
X2181230Y610810D01*
X2177900Y594140D01*
X2169560Y582470D01*
X2159560Y579140D01*
X2149560Y580810D01*
X2141230Y587470D01*
X2124560Y620810D01*
X2112900Y635810D01*
X2096230Y645810D01*
X2081230Y649140D01*
Y579140D01*
G01Y494140D02*
X2082900Y482470D01*
X2087900Y469140D01*
X2096230Y460810D01*
X2107900Y457470D01*
X2119560Y460810D01*
X2129560Y470810D01*
X2134560Y485810D01*
Y502470D01*
X2137900Y512470D01*
X2146230Y520810D01*
X2157900Y524140D01*
X2169560Y519140D01*
X2177900Y507480D01*
X2181230Y494140D01*
X2177900Y480810D01*
X2169560Y469140D01*
X2157900Y464140D01*
X2146230Y467470D01*
X2137900Y475810D01*
X2134560Y485810D01*
Y502470D01*
X2129560Y517470D01*
X2119560Y527470D01*
X2107900Y530810D01*
X2096230Y527470D01*
X2087900Y519140D01*
X2082900Y505810D01*
X2081230Y494140D01*
G01Y767470D02*
X2181230D01*
Y725810D01*
X2176230Y712470D01*
X2169560Y704140D01*
X2156230Y700810D01*
X2142900Y704140D01*
X2134560Y714140D01*
X2129560Y725810D01*
Y767470D01*
G01Y725810D02*
X2081230Y700810D01*
G01X2164560Y645810D02*
X2174560Y635810D01*
X2179560Y624140D01*
X2181230Y610810D01*
X2177900Y594140D01*
X2169560Y582470D01*
X2159560Y579140D01*
X2149560Y580810D01*
X2141230Y587470D01*
X2124560Y620810D01*
X2112900Y635810D01*
X2096230Y645810D01*
X2081230Y649140D01*
Y579140D01*
G01Y494140D02*
X2082900Y482470D01*
X2087900Y469140D01*
X2096230Y460810D01*
X2107900Y457470D01*
X2119560Y460810D01*
X2129560Y470810D01*
X2134560Y485810D01*
Y502470D01*
X2137900Y512470D01*
X2146230Y520810D01*
X2157900Y524140D01*
X2169560Y519140D01*
X2177900Y507480D01*
X2181230Y494140D01*
X2177900Y480810D01*
X2169560Y469140D01*
X2157900Y464140D01*
X2146230Y467470D01*
X2137900Y475810D01*
X2134560Y485810D01*
Y502470D01*
X2129560Y517470D01*
X2119560Y527470D01*
X2107900Y530810D01*
X2096230Y527470D01*
X2087900Y519140D01*
X2082900Y505810D01*
X2081230Y494140D01*
G01X1620000Y1400000D02*
X1606660Y1401670D01*
X1595000Y1408330D01*
X1585000Y1418330D01*
X1578330Y1430000D01*
X1575000Y1443330D01*
Y1456670D01*
X1578330Y1470000D01*
X1585000Y1481670D01*
X1595000Y1491670D01*
X1606660Y1498330D01*
X1620000Y1500000D01*
X1633330Y1498330D01*
X1645000Y1491670D01*
X1655000Y1481670D01*
X1661670Y1470000D01*
X1665000Y1456670D01*
Y1443330D01*
X1661670Y1430000D01*
X1655000Y1418330D01*
X1645000Y1408330D01*
X1633330Y1401670D01*
X1620000Y1400000D01*
G01X1633330Y1426670D02*
X1653330Y1400000D01*
G01X1703330Y1420000D02*
X1713330Y1408330D01*
X1726660Y1401670D01*
X1741670Y1400000D01*
X1755000Y1401670D01*
X1768330Y1410000D01*
X1776670Y1420000D01*
X1778330Y1430000D01*
X1775000Y1441660D01*
X1763330Y1450000D01*
X1751670Y1453330D01*
X1736670D01*
G01X1751670D02*
X1761670Y1458330D01*
X1770000Y1466660D01*
X1773330Y1476670D01*
X1770000Y1486670D01*
X1761670Y1495000D01*
X1746670Y1500000D01*
X1731670Y1498330D01*
X1716670Y1491670D01*
G01X2152100Y1957320D02*
X2153770Y1970660D01*
X2160430Y1982320D01*
X2170430Y1992320D01*
X2182100Y1998990D01*
X2195430Y2002320D01*
X2208770D01*
X2222100Y1998990D01*
X2233770Y1992320D01*
X2243770Y1982320D01*
X2250430Y1970660D01*
X2252100Y1957320D01*
X2250430Y1943990D01*
X2243770Y1932320D01*
X2233770Y1922320D01*
X2222100Y1915650D01*
X2208770Y1912320D01*
X2195430D01*
X2182100Y1915650D01*
X2170430Y1922320D01*
X2160430Y1932320D01*
X2153770Y1943990D01*
X2152100Y1957320D01*
G01X2178770Y1943990D02*
X2152100Y1923990D01*
G01Y1837320D02*
X2153770Y1825650D01*
X2158770Y1812320D01*
X2167100Y1803990D01*
X2178770Y1800650D01*
X2190430Y1803990D01*
X2200430Y1813990D01*
X2205430Y1828990D01*
Y1845650D01*
X2208770Y1855650D01*
X2217100Y1863990D01*
X2228770Y1867320D01*
X2240430Y1862320D01*
X2248770Y1850660D01*
X2252100Y1837320D01*
X2248770Y1823990D01*
X2240430Y1812320D01*
X2228770Y1807320D01*
X2217100Y1810650D01*
X2208770Y1818990D01*
X2205430Y1828990D01*
Y1845650D01*
X2200430Y1860650D01*
X2190430Y1870650D01*
X2178770Y1873990D01*
X2167100Y1870650D01*
X2158770Y1862320D01*
X2153770Y1848990D01*
X2152100Y1837320D01*
G01X2160000Y1960000D02*
X2161670Y1973340D01*
X2168330Y1985000D01*
X2178330Y1995000D01*
X2190000Y2001670D01*
X2203330Y2005000D01*
X2216670D01*
X2230000Y2001670D01*
X2241670Y1995000D01*
X2251670Y1985000D01*
X2258330Y1973340D01*
X2260000Y1960000D01*
X2258330Y1946670D01*
X2251670Y1935000D01*
X2241670Y1925000D01*
X2230000Y1918330D01*
X2216670Y1915000D01*
X2203330D01*
X2190000Y1918330D01*
X2178330Y1925000D01*
X2168330Y1935000D01*
X2161670Y1946670D01*
X2160000Y1960000D01*
G01X2186670Y1946670D02*
X2160000Y1926670D01*
G01Y1840000D02*
X2161670Y1828330D01*
X2166670Y1815000D01*
X2175000Y1806670D01*
X2186670Y1803330D01*
X2198330Y1806670D01*
X2208330Y1816670D01*
X2213330Y1831670D01*
Y1848330D01*
X2216670Y1858330D01*
X2225000Y1866670D01*
X2236670Y1870000D01*
X2248330Y1865000D01*
X2256670Y1853340D01*
X2260000Y1840000D01*
X2256670Y1826670D01*
X2248330Y1815000D01*
X2236670Y1810000D01*
X2225000Y1813330D01*
X2216670Y1821670D01*
X2213330Y1831670D01*
Y1848330D01*
X2208330Y1863330D01*
X2198330Y1873330D01*
X2186670Y1876670D01*
X2175000Y1873330D01*
X2166670Y1865000D01*
X2161670Y1851670D01*
X2160000Y1840000D01*
G01X1972530Y1391230D02*
Y1491230D01*
X2014190D01*
X2027530Y1486230D01*
X2035860Y1479560D01*
X2039190Y1466230D01*
X2035860Y1452900D01*
X2025860Y1444560D01*
X2014190Y1439560D01*
X1972530D01*
G01X2014190D02*
X2039190Y1391230D01*
G01X2094190Y1474560D02*
X2104190Y1484560D01*
X2115860Y1489560D01*
X2129190Y1491230D01*
X2145860Y1487900D01*
X2157530Y1479560D01*
X2160860Y1469560D01*
X2159190Y1459560D01*
X2152530Y1451230D01*
X2119190Y1434560D01*
X2104190Y1422900D01*
X2094190Y1406230D01*
X2090860Y1391230D01*
X2160860D01*
G01X2209190Y1406230D02*
X2219190Y1397900D01*
X2230860Y1392900D01*
X2245860Y1391230D01*
X2260860Y1394560D01*
X2272530Y1401230D01*
X2280860Y1412900D01*
X2282530Y1426230D01*
X2279190Y1439560D01*
X2270860Y1447900D01*
X2259190Y1454560D01*
X2247530Y1456230D01*
X2235860Y1454560D01*
X2220860Y1447900D01*
X2225860Y1491230D01*
X2270860D01*
G01X1972530Y1391230D02*
Y1491230D01*
X2014190D01*
X2027530Y1486230D01*
X2035860Y1479560D01*
X2039190Y1466230D01*
X2035860Y1452900D01*
X2025860Y1444560D01*
X2014190Y1439560D01*
X1972530D01*
G01X2014190D02*
X2039190Y1391230D01*
G01X2094190Y1474560D02*
X2104190Y1484560D01*
X2115860Y1489560D01*
X2129190Y1491230D01*
X2145860Y1487900D01*
X2157530Y1479560D01*
X2160860Y1469560D01*
X2159190Y1459560D01*
X2152530Y1451230D01*
X2119190Y1434560D01*
X2104190Y1422900D01*
X2094190Y1406230D01*
X2090860Y1391230D01*
X2160860D01*
G01X2209190Y1406230D02*
X2219190Y1397900D01*
X2230860Y1392900D01*
X2245860Y1391230D01*
X2260860Y1394560D01*
X2272530Y1401230D01*
X2280860Y1412900D01*
X2282530Y1426230D01*
X2279190Y1439560D01*
X2270860Y1447900D01*
X2259190Y1454560D01*
X2247530Y1456230D01*
X2235860Y1454560D01*
X2220860Y1447900D01*
X2225860Y1491230D01*
X2270860D01*
G01X1972530Y1391230D02*
Y1491230D01*
X2014190D01*
X2027530Y1486230D01*
X2035860Y1479560D01*
X2039190Y1466230D01*
X2035860Y1452900D01*
X2025860Y1444560D01*
X2014190Y1439560D01*
X1972530D01*
G01X2014190D02*
X2039190Y1391230D01*
G01X2094190Y1474560D02*
X2104190Y1484560D01*
X2115860Y1489560D01*
X2129190Y1491230D01*
X2145860Y1487900D01*
X2157530Y1479560D01*
X2160860Y1469560D01*
X2159190Y1459560D01*
X2152530Y1451230D01*
X2119190Y1434560D01*
X2104190Y1422900D01*
X2094190Y1406230D01*
X2090860Y1391230D01*
X2160860D01*
G01X2209190Y1406230D02*
X2219190Y1397900D01*
X2230860Y1392900D01*
X2245860Y1391230D01*
X2260860Y1394560D01*
X2272530Y1401230D01*
X2280860Y1412900D01*
X2282530Y1426230D01*
X2279190Y1439560D01*
X2270860Y1447900D01*
X2259190Y1454560D01*
X2247530Y1456230D01*
X2235860Y1454560D01*
X2220860Y1447900D01*
X2225860Y1491230D01*
X2270860D01*
G01X2100000Y2480000D02*
X2101670Y2493340D01*
X2108330Y2505000D01*
X2118330Y2515000D01*
X2130000Y2521670D01*
X2143330Y2525000D01*
X2156670D01*
X2170000Y2521670D01*
X2181670Y2515000D01*
X2191670Y2505000D01*
X2198330Y2493340D01*
X2200000Y2480000D01*
X2198330Y2466670D01*
X2191670Y2455000D01*
X2181670Y2445000D01*
X2170000Y2438330D01*
X2156670Y2435000D01*
X2143330D01*
X2130000Y2438330D01*
X2118330Y2445000D01*
X2108330Y2455000D01*
X2101670Y2466670D01*
X2100000Y2480000D01*
G01X2126670Y2466670D02*
X2100000Y2446670D01*
G01X2183330Y2391670D02*
X2193330Y2381670D01*
X2198330Y2370000D01*
X2200000Y2356670D01*
X2196670Y2340000D01*
X2188330Y2328330D01*
X2178330Y2325000D01*
X2168330Y2326670D01*
X2160000Y2333330D01*
X2143330Y2366670D01*
X2131670Y2381670D01*
X2115000Y2391670D01*
X2100000Y2395000D01*
Y2325000D01*
G01Y2220000D02*
X2200000D01*
X2128330Y2281670D01*
Y2198330D01*
G01X1670000Y2180000D02*
X1671670Y2193340D01*
X1678330Y2205000D01*
X1688330Y2215000D01*
X1700000Y2221670D01*
X1713330Y2225000D01*
X1726670D01*
X1740000Y2221670D01*
X1751670Y2215000D01*
X1761670Y2205000D01*
X1768330Y2193340D01*
X1770000Y2180000D01*
X1768330Y2166670D01*
X1761670Y2155000D01*
X1751670Y2145000D01*
X1740000Y2138330D01*
X1726670Y2135000D01*
X1713330D01*
X1700000Y2138330D01*
X1688330Y2145000D01*
X1678330Y2155000D01*
X1671670Y2166670D01*
X1670000Y2180000D01*
G01X1696670Y2166670D02*
X1670000Y2146670D01*
G01X1753330Y2091670D02*
X1763330Y2081670D01*
X1768330Y2070000D01*
X1770000Y2056670D01*
X1766670Y2040000D01*
X1758330Y2028330D01*
X1748330Y2025000D01*
X1738330Y2026670D01*
X1730000Y2033330D01*
X1713330Y2066670D01*
X1701670Y2081670D01*
X1685000Y2091670D01*
X1670000Y2095000D01*
Y2025000D01*
G01Y1920000D02*
X1770000D01*
X1698330Y1981670D01*
Y1898330D01*
G01X1650000Y2550000D02*
X1636660Y2551670D01*
X1625000Y2558330D01*
X1615000Y2568330D01*
X1608330Y2580000D01*
X1605000Y2593330D01*
Y2606670D01*
X1608330Y2620000D01*
X1615000Y2631670D01*
X1625000Y2641670D01*
X1636660Y2648330D01*
X1650000Y2650000D01*
X1663330Y2648330D01*
X1675000Y2641670D01*
X1685000Y2631670D01*
X1691670Y2620000D01*
X1695000Y2606670D01*
Y2593330D01*
X1691670Y2580000D01*
X1685000Y2568330D01*
X1675000Y2558330D01*
X1663330Y2551670D01*
X1650000Y2550000D01*
G01X1663330Y2576670D02*
X1683330Y2550000D01*
G01X1770000D02*
Y2650000D01*
X1750000Y2630000D01*
G01Y2550000D02*
X1790000D01*
G01X1890000D02*
X1901670Y2551670D01*
X1915000Y2556670D01*
X1923330Y2565000D01*
X1926670Y2576670D01*
X1923330Y2588330D01*
X1913330Y2598330D01*
X1898330Y2603330D01*
X1881670D01*
X1871670Y2606670D01*
X1863330Y2615000D01*
X1860000Y2626670D01*
X1865000Y2638330D01*
X1876660Y2646670D01*
X1890000Y2650000D01*
X1903330Y2646670D01*
X1915000Y2638330D01*
X1920000Y2626670D01*
X1916670Y2615000D01*
X1908330Y2606670D01*
X1898330Y2603330D01*
X1881670D01*
X1866670Y2598330D01*
X1856670Y2588330D01*
X1853330Y2576670D01*
X1856670Y2565000D01*
X1865000Y2556670D01*
X1878330Y2551670D01*
X1890000Y2550000D01*
G01X1640000D02*
X1626660Y2551670D01*
X1615000Y2558330D01*
X1605000Y2568330D01*
X1598330Y2580000D01*
X1595000Y2593330D01*
Y2606670D01*
X1598330Y2620000D01*
X1605000Y2631670D01*
X1615000Y2641670D01*
X1626660Y2648330D01*
X1640000Y2650000D01*
X1653330Y2648330D01*
X1665000Y2641670D01*
X1675000Y2631670D01*
X1681670Y2620000D01*
X1685000Y2606670D01*
Y2593330D01*
X1681670Y2580000D01*
X1675000Y2568330D01*
X1665000Y2558330D01*
X1653330Y2551670D01*
X1640000Y2550000D01*
G01X1653330Y2576670D02*
X1673330Y2550000D01*
G01X1760000D02*
Y2650000D01*
X1740000Y2630000D01*
G01Y2550000D02*
X1780000D01*
G01X1880000D02*
X1891670Y2551670D01*
X1905000Y2556670D01*
X1913330Y2565000D01*
X1916670Y2576670D01*
X1913330Y2588330D01*
X1903330Y2598330D01*
X1888330Y2603330D01*
X1871670D01*
X1861670Y2606670D01*
X1853330Y2615000D01*
X1850000Y2626670D01*
X1855000Y2638330D01*
X1866660Y2646670D01*
X1880000Y2650000D01*
X1893330Y2646670D01*
X1905000Y2638330D01*
X1910000Y2626670D01*
X1906670Y2615000D01*
X1898330Y2606670D01*
X1888330Y2603330D01*
X1871670D01*
X1856670Y2598330D01*
X1846670Y2588330D01*
X1843330Y2576670D01*
X1846670Y2565000D01*
X1855000Y2556670D01*
X1868330Y2551670D01*
X1880000Y2550000D01*
G01X1592680Y3282100D02*
X1594350Y3295440D01*
X1601010Y3307100D01*
X1611010Y3317100D01*
X1622680Y3323770D01*
X1636010Y3327100D01*
X1649350D01*
X1662680Y3323770D01*
X1674350Y3317100D01*
X1684350Y3307100D01*
X1691010Y3295440D01*
X1692680Y3282100D01*
X1691010Y3268770D01*
X1684350Y3257100D01*
X1674350Y3247100D01*
X1662680Y3240430D01*
X1649350Y3237100D01*
X1636010D01*
X1622680Y3240430D01*
X1611010Y3247100D01*
X1601010Y3257100D01*
X1594350Y3268770D01*
X1592680Y3282100D01*
G01X1619350Y3268770D02*
X1592680Y3248770D01*
G01Y3165430D02*
X1614350Y3162100D01*
X1632680Y3157100D01*
X1649350Y3150430D01*
X1667680Y3142100D01*
X1692680Y3128770D01*
Y3195430D01*
G01X1600000Y3280000D02*
X1601670Y3293340D01*
X1608330Y3305000D01*
X1618330Y3315000D01*
X1630000Y3321670D01*
X1643330Y3325000D01*
X1656670D01*
X1670000Y3321670D01*
X1681670Y3315000D01*
X1691670Y3305000D01*
X1698330Y3293340D01*
X1700000Y3280000D01*
X1698330Y3266670D01*
X1691670Y3255000D01*
X1681670Y3245000D01*
X1670000Y3238330D01*
X1656670Y3235000D01*
X1643330D01*
X1630000Y3238330D01*
X1618330Y3245000D01*
X1608330Y3255000D01*
X1601670Y3266670D01*
X1600000Y3280000D01*
G01X1626670Y3266670D02*
X1600000Y3246670D01*
G01Y3163330D02*
X1621670Y3160000D01*
X1640000Y3155000D01*
X1656670Y3148330D01*
X1675000Y3140000D01*
X1700000Y3126670D01*
Y3193330D01*
G01X2104140Y2914330D02*
Y3014330D01*
X2137480D01*
X2150810Y3009330D01*
X2160810Y3002660D01*
X2169140Y2992660D01*
X2175810Y2980990D01*
X2177480Y2964330D01*
X2175810Y2947660D01*
X2169140Y2936000D01*
X2160810Y2925990D01*
X2150810Y2919330D01*
X2137480Y2914330D01*
X2104140D01*
G01X2224140Y2934330D02*
X2234140Y2922660D01*
X2247470Y2916000D01*
X2262480Y2914330D01*
X2275810Y2916000D01*
X2289140Y2924330D01*
X2297480Y2934330D01*
X2299140Y2944330D01*
X2295810Y2955990D01*
X2284140Y2964330D01*
X2272480Y2967660D01*
X2257480D01*
G01X2272480D02*
X2282480Y2972660D01*
X2290810Y2980990D01*
X2294140Y2991000D01*
X2290810Y3001000D01*
X2282480Y3009330D01*
X2267480Y3014330D01*
X2252480Y3012660D01*
X2237480Y3006000D01*
G01X2104140Y2914330D02*
Y3014330D01*
X2137480D01*
X2150810Y3009330D01*
X2160810Y3002660D01*
X2169140Y2992660D01*
X2175810Y2980990D01*
X2177480Y2964330D01*
X2175810Y2947660D01*
X2169140Y2936000D01*
X2160810Y2925990D01*
X2150810Y2919330D01*
X2137480Y2914330D01*
X2104140D01*
G01X2224140Y2934330D02*
X2234140Y2922660D01*
X2247470Y2916000D01*
X2262480Y2914330D01*
X2275810Y2916000D01*
X2289140Y2924330D01*
X2297480Y2934330D01*
X2299140Y2944330D01*
X2295810Y2955990D01*
X2284140Y2964330D01*
X2272480Y2967660D01*
X2257480D01*
G01X2272480D02*
X2282480Y2972660D01*
X2290810Y2980990D01*
X2294140Y2991000D01*
X2290810Y3001000D01*
X2282480Y3009330D01*
X2267480Y3014330D01*
X2252480Y3012660D01*
X2237480Y3006000D01*
G01X2104140Y2914330D02*
Y3014330D01*
X2137480D01*
X2150810Y3009330D01*
X2160810Y3002660D01*
X2169140Y2992660D01*
X2175810Y2980990D01*
X2177480Y2964330D01*
X2175810Y2947660D01*
X2169140Y2936000D01*
X2160810Y2925990D01*
X2150810Y2919330D01*
X2137480Y2914330D01*
X2104140D01*
G01X2224140Y2934330D02*
X2234140Y2922660D01*
X2247470Y2916000D01*
X2262480Y2914330D01*
X2275810Y2916000D01*
X2289140Y2924330D01*
X2297480Y2934330D01*
X2299140Y2944330D01*
X2295810Y2955990D01*
X2284140Y2964330D01*
X2272480Y2967660D01*
X2257480D01*
G01X2272480D02*
X2282480Y2972660D01*
X2290810Y2980990D01*
X2294140Y2991000D01*
X2290810Y3001000D01*
X2282480Y3009330D01*
X2267480Y3014330D01*
X2252480Y3012660D01*
X2237480Y3006000D01*
G01X1521230Y3817470D02*
X1621230D01*
Y3775810D01*
X1616230Y3762470D01*
X1609560Y3754140D01*
X1596230Y3750810D01*
X1582900Y3754140D01*
X1574560Y3764140D01*
X1569560Y3775810D01*
Y3817470D01*
G01Y3775810D02*
X1521230Y3750810D01*
G01X1541230Y3700810D02*
X1529560Y3690810D01*
X1522900Y3677480D01*
X1521230Y3662470D01*
X1522900Y3649140D01*
X1531230Y3635810D01*
X1541230Y3627470D01*
X1551230Y3625810D01*
X1562890Y3629140D01*
X1571230Y3640810D01*
X1574560Y3652470D01*
Y3667470D01*
G01Y3652470D02*
X1579560Y3642470D01*
X1587890Y3634140D01*
X1597900Y3630810D01*
X1607900Y3634140D01*
X1616230Y3642470D01*
X1621230Y3657470D01*
X1619560Y3672470D01*
X1612900Y3687470D01*
G01X1521230Y3544140D02*
X1522900Y3532470D01*
X1527900Y3519140D01*
X1536230Y3510810D01*
X1547900Y3507470D01*
X1559560Y3510810D01*
X1569560Y3520810D01*
X1574560Y3535810D01*
Y3552470D01*
X1577900Y3562470D01*
X1586230Y3570810D01*
X1597900Y3574140D01*
X1609560Y3569140D01*
X1617900Y3557480D01*
X1621230Y3544140D01*
X1617900Y3530810D01*
X1609560Y3519140D01*
X1597900Y3514140D01*
X1586230Y3517470D01*
X1577900Y3525810D01*
X1574560Y3535810D01*
Y3552470D01*
X1569560Y3567470D01*
X1559560Y3577470D01*
X1547900Y3580810D01*
X1536230Y3577470D01*
X1527900Y3569140D01*
X1522900Y3555810D01*
X1521230Y3544140D01*
G01Y3817470D02*
X1621230D01*
Y3775810D01*
X1616230Y3762470D01*
X1609560Y3754140D01*
X1596230Y3750810D01*
X1582900Y3754140D01*
X1574560Y3764140D01*
X1569560Y3775810D01*
Y3817470D01*
G01Y3775810D02*
X1521230Y3750810D01*
G01X1541230Y3700810D02*
X1529560Y3690810D01*
X1522900Y3677480D01*
X1521230Y3662470D01*
X1522900Y3649140D01*
X1531230Y3635810D01*
X1541230Y3627470D01*
X1551230Y3625810D01*
X1562890Y3629140D01*
X1571230Y3640810D01*
X1574560Y3652470D01*
Y3667470D01*
G01Y3652470D02*
X1579560Y3642470D01*
X1587890Y3634140D01*
X1597900Y3630810D01*
X1607900Y3634140D01*
X1616230Y3642470D01*
X1621230Y3657470D01*
X1619560Y3672470D01*
X1612900Y3687470D01*
G01X1521230Y3544140D02*
X1522900Y3532470D01*
X1527900Y3519140D01*
X1536230Y3510810D01*
X1547900Y3507470D01*
X1559560Y3510810D01*
X1569560Y3520810D01*
X1574560Y3535810D01*
Y3552470D01*
X1577900Y3562470D01*
X1586230Y3570810D01*
X1597900Y3574140D01*
X1609560Y3569140D01*
X1617900Y3557480D01*
X1621230Y3544140D01*
X1617900Y3530810D01*
X1609560Y3519140D01*
X1597900Y3514140D01*
X1586230Y3517470D01*
X1577900Y3525810D01*
X1574560Y3535810D01*
Y3552470D01*
X1569560Y3567470D01*
X1559560Y3577470D01*
X1547900Y3580810D01*
X1536230Y3577470D01*
X1527900Y3569140D01*
X1522900Y3555810D01*
X1521230Y3544140D01*
G01Y3817470D02*
X1621230D01*
Y3775810D01*
X1616230Y3762470D01*
X1609560Y3754140D01*
X1596230Y3750810D01*
X1582900Y3754140D01*
X1574560Y3764140D01*
X1569560Y3775810D01*
Y3817470D01*
G01Y3775810D02*
X1521230Y3750810D01*
G01X1541230Y3700810D02*
X1529560Y3690810D01*
X1522900Y3677480D01*
X1521230Y3662470D01*
X1522900Y3649140D01*
X1531230Y3635810D01*
X1541230Y3627470D01*
X1551230Y3625810D01*
X1562890Y3629140D01*
X1571230Y3640810D01*
X1574560Y3652470D01*
Y3667470D01*
G01Y3652470D02*
X1579560Y3642470D01*
X1587890Y3634140D01*
X1597900Y3630810D01*
X1607900Y3634140D01*
X1616230Y3642470D01*
X1621230Y3657470D01*
X1619560Y3672470D01*
X1612900Y3687470D01*
G01X1521230Y3544140D02*
X1522900Y3532470D01*
X1527900Y3519140D01*
X1536230Y3510810D01*
X1547900Y3507470D01*
X1559560Y3510810D01*
X1569560Y3520810D01*
X1574560Y3535810D01*
Y3552470D01*
X1577900Y3562470D01*
X1586230Y3570810D01*
X1597900Y3574140D01*
X1609560Y3569140D01*
X1617900Y3557480D01*
X1621230Y3544140D01*
X1617900Y3530810D01*
X1609560Y3519140D01*
X1597900Y3514140D01*
X1586230Y3517470D01*
X1577900Y3525810D01*
X1574560Y3535810D01*
Y3552470D01*
X1569560Y3567470D01*
X1559560Y3577470D01*
X1547900Y3580810D01*
X1536230Y3577470D01*
X1527900Y3569140D01*
X1522900Y3555810D01*
X1521230Y3544140D01*
G01X2440000Y1200000D02*
X2441670Y1213340D01*
X2448330Y1225000D01*
X2458330Y1235000D01*
X2470000Y1241670D01*
X2483330Y1245000D01*
X2496670D01*
X2510000Y1241670D01*
X2521670Y1235000D01*
X2531670Y1225000D01*
X2538330Y1213340D01*
X2540000Y1200000D01*
X2538330Y1186670D01*
X2531670Y1175000D01*
X2521670Y1165000D01*
X2510000Y1158330D01*
X2496670Y1155000D01*
X2483330D01*
X2470000Y1158330D01*
X2458330Y1165000D01*
X2448330Y1175000D01*
X2441670Y1186670D01*
X2440000Y1200000D01*
G01X2466670Y1186670D02*
X2440000Y1166670D01*
G01Y1080000D02*
X2540000D01*
X2520000Y1100000D01*
G01X2440000D02*
Y1060000D01*
G01Y960000D02*
X2540000D01*
X2520000Y980000D01*
G01X2440000D02*
Y940000D01*
G01X2921230Y1347470D02*
X3021230D01*
Y1305810D01*
X3016230Y1292470D01*
X3009560Y1284140D01*
X2996230Y1280810D01*
X2982900Y1284140D01*
X2974560Y1294140D01*
X2969560Y1305810D01*
Y1347470D01*
G01Y1305810D02*
X2921230Y1280810D01*
G01X2941230Y1230810D02*
X2929560Y1220810D01*
X2922900Y1207480D01*
X2921230Y1192470D01*
X2922900Y1179140D01*
X2931230Y1165810D01*
X2941230Y1157470D01*
X2951230Y1155810D01*
X2962890Y1159140D01*
X2971230Y1170810D01*
X2974560Y1182470D01*
Y1197470D01*
G01Y1182470D02*
X2979560Y1172470D01*
X2987890Y1164140D01*
X2997900Y1160810D01*
X3007900Y1164140D01*
X3016230Y1172470D01*
X3021230Y1187470D01*
X3019560Y1202470D01*
X3012900Y1217470D01*
G01X2936230Y1110810D02*
X2927900Y1100810D01*
X2922900Y1089140D01*
X2921230Y1074140D01*
X2924560Y1059140D01*
X2931230Y1047470D01*
X2942900Y1039140D01*
X2956230Y1037470D01*
X2969560Y1040810D01*
X2977900Y1049140D01*
X2984560Y1060810D01*
X2986230Y1072470D01*
X2984560Y1084140D01*
X2977900Y1099140D01*
X3021230Y1094140D01*
Y1049140D01*
G01X2921230Y1347470D02*
X3021230D01*
Y1305810D01*
X3016230Y1292470D01*
X3009560Y1284140D01*
X2996230Y1280810D01*
X2982900Y1284140D01*
X2974560Y1294140D01*
X2969560Y1305810D01*
Y1347470D01*
G01Y1305810D02*
X2921230Y1280810D01*
G01X2941230Y1230810D02*
X2929560Y1220810D01*
X2922900Y1207480D01*
X2921230Y1192470D01*
X2922900Y1179140D01*
X2931230Y1165810D01*
X2941230Y1157470D01*
X2951230Y1155810D01*
X2962890Y1159140D01*
X2971230Y1170810D01*
X2974560Y1182470D01*
Y1197470D01*
G01Y1182470D02*
X2979560Y1172470D01*
X2987890Y1164140D01*
X2997900Y1160810D01*
X3007900Y1164140D01*
X3016230Y1172470D01*
X3021230Y1187470D01*
X3019560Y1202470D01*
X3012900Y1217470D01*
G01X2936230Y1110810D02*
X2927900Y1100810D01*
X2922900Y1089140D01*
X2921230Y1074140D01*
X2924560Y1059140D01*
X2931230Y1047470D01*
X2942900Y1039140D01*
X2956230Y1037470D01*
X2969560Y1040810D01*
X2977900Y1049140D01*
X2984560Y1060810D01*
X2986230Y1072470D01*
X2984560Y1084140D01*
X2977900Y1099140D01*
X3021230Y1094140D01*
Y1049140D01*
G01X2921230Y1347470D02*
X3021230D01*
Y1305810D01*
X3016230Y1292470D01*
X3009560Y1284140D01*
X2996230Y1280810D01*
X2982900Y1284140D01*
X2974560Y1294140D01*
X2969560Y1305810D01*
Y1347470D01*
G01Y1305810D02*
X2921230Y1280810D01*
G01X2941230Y1230810D02*
X2929560Y1220810D01*
X2922900Y1207480D01*
X2921230Y1192470D01*
X2922900Y1179140D01*
X2931230Y1165810D01*
X2941230Y1157470D01*
X2951230Y1155810D01*
X2962890Y1159140D01*
X2971230Y1170810D01*
X2974560Y1182470D01*
Y1197470D01*
G01Y1182470D02*
X2979560Y1172470D01*
X2987890Y1164140D01*
X2997900Y1160810D01*
X3007900Y1164140D01*
X3016230Y1172470D01*
X3021230Y1187470D01*
X3019560Y1202470D01*
X3012900Y1217470D01*
G01X2936230Y1110810D02*
X2927900Y1100810D01*
X2922900Y1089140D01*
X2921230Y1074140D01*
X2924560Y1059140D01*
X2931230Y1047470D01*
X2942900Y1039140D01*
X2956230Y1037470D01*
X2969560Y1040810D01*
X2977900Y1049140D01*
X2984560Y1060810D01*
X2986230Y1072470D01*
X2984560Y1084140D01*
X2977900Y1099140D01*
X3021230Y1094140D01*
Y1049140D01*
G01X2580440Y699190D02*
X2585440Y709190D01*
X2588770Y720860D01*
Y734190D01*
X2583770Y749200D01*
X2575440Y760860D01*
X2565440Y769190D01*
X2548770Y775860D01*
X2533770Y777530D01*
X2518770Y774190D01*
X2508770Y769190D01*
X2498770Y759190D01*
X2492100Y747530D01*
X2488770Y735860D01*
Y724190D01*
X2492100Y712530D01*
X2497100Y702530D01*
X2503770Y694190D01*
G01X2488770Y615860D02*
X2588770D01*
X2568770Y635860D01*
G01X2488770D02*
Y595860D01*
G01X2530430Y527530D02*
X2542100Y515860D01*
X2548770Y505860D01*
X2552100Y492530D01*
X2548770Y480860D01*
X2542100Y472530D01*
X2532100Y465860D01*
X2520440Y464190D01*
X2510440Y465860D01*
X2500430Y472530D01*
X2492100Y482530D01*
X2488770Y494190D01*
X2492100Y507530D01*
X2502100Y519190D01*
X2517100Y525860D01*
X2533770Y527530D01*
X2555430Y524190D01*
X2567100Y519190D01*
X2578770Y510860D01*
X2587100Y499190D01*
X2588770Y487530D01*
X2585440Y475860D01*
X2577100Y467530D01*
G01X2580440Y699190D02*
X2585440Y709190D01*
X2588770Y720860D01*
Y734190D01*
X2583770Y749200D01*
X2575440Y760860D01*
X2565440Y769190D01*
X2548770Y775860D01*
X2533770Y777530D01*
X2518770Y774190D01*
X2508770Y769190D01*
X2498770Y759190D01*
X2492100Y747530D01*
X2488770Y735860D01*
Y724190D01*
X2492100Y712530D01*
X2497100Y702530D01*
X2503770Y694190D01*
G01X2488770Y615860D02*
X2588770D01*
X2568770Y635860D01*
G01X2488770D02*
Y595860D01*
G01X2530430Y527530D02*
X2542100Y515860D01*
X2548770Y505860D01*
X2552100Y492530D01*
X2548770Y480860D01*
X2542100Y472530D01*
X2532100Y465860D01*
X2520440Y464190D01*
X2510440Y465860D01*
X2500430Y472530D01*
X2492100Y482530D01*
X2488770Y494190D01*
X2492100Y507530D01*
X2502100Y519190D01*
X2517100Y525860D01*
X2533770Y527530D01*
X2555430Y524190D01*
X2567100Y519190D01*
X2578770Y510860D01*
X2587100Y499190D01*
X2588770Y487530D01*
X2585440Y475860D01*
X2577100Y467530D01*
G01X2580440Y699190D02*
X2585440Y709190D01*
X2588770Y720860D01*
Y734190D01*
X2583770Y749200D01*
X2575440Y760860D01*
X2565440Y769190D01*
X2548770Y775860D01*
X2533770Y777530D01*
X2518770Y774190D01*
X2508770Y769190D01*
X2498770Y759190D01*
X2492100Y747530D01*
X2488770Y735860D01*
Y724190D01*
X2492100Y712530D01*
X2497100Y702530D01*
X2503770Y694190D01*
G01X2488770Y615860D02*
X2588770D01*
X2568770Y635860D01*
G01X2488770D02*
Y595860D01*
G01X2530430Y527530D02*
X2542100Y515860D01*
X2548770Y505860D01*
X2552100Y492530D01*
X2548770Y480860D01*
X2542100Y472530D01*
X2532100Y465860D01*
X2520440Y464190D01*
X2510440Y465860D01*
X2500430Y472530D01*
X2492100Y482530D01*
X2488770Y494190D01*
X2492100Y507530D01*
X2502100Y519190D01*
X2517100Y525860D01*
X2533770Y527530D01*
X2555430Y524190D01*
X2567100Y519190D01*
X2578770Y510860D01*
X2587100Y499190D01*
X2588770Y487530D01*
X2585440Y475860D01*
X2577100Y467530D01*
G01X2655440Y917530D02*
X2645440Y922530D01*
X2633770Y925860D01*
X2620440D01*
X2605430Y920860D01*
X2593770Y912530D01*
X2585440Y902530D01*
X2578770Y885860D01*
X2577100Y870860D01*
X2580440Y855860D01*
X2585440Y845860D01*
X2595440Y835860D01*
X2607100Y829190D01*
X2618770Y825860D01*
X2630440D01*
X2642100Y829190D01*
X2652100Y834190D01*
X2660440Y840860D01*
G01X2738770Y825860D02*
Y925860D01*
X2718770Y905860D01*
G01Y825860D02*
X2758770D01*
G01X2878770D02*
Y925860D01*
X2817100Y854190D01*
X2900440D01*
G01X2655440Y917530D02*
X2645440Y922530D01*
X2633770Y925860D01*
X2620440D01*
X2605430Y920860D01*
X2593770Y912530D01*
X2585440Y902530D01*
X2578770Y885860D01*
X2577100Y870860D01*
X2580440Y855860D01*
X2585440Y845860D01*
X2595440Y835860D01*
X2607100Y829190D01*
X2618770Y825860D01*
X2630440D01*
X2642100Y829190D01*
X2652100Y834190D01*
X2660440Y840860D01*
G01X2738770Y825860D02*
Y925860D01*
X2718770Y905860D01*
G01Y825860D02*
X2758770D01*
G01X2878770D02*
Y925860D01*
X2817100Y854190D01*
X2900440D01*
G01X2655440Y917530D02*
X2645440Y922530D01*
X2633770Y925860D01*
X2620440D01*
X2605430Y920860D01*
X2593770Y912530D01*
X2585440Y902530D01*
X2578770Y885860D01*
X2577100Y870860D01*
X2580440Y855860D01*
X2585440Y845860D01*
X2595440Y835860D01*
X2607100Y829190D01*
X2618770Y825860D01*
X2630440D01*
X2642100Y829190D01*
X2652100Y834190D01*
X2660440Y840860D01*
G01X2738770Y825860D02*
Y925860D01*
X2718770Y905860D01*
G01Y825860D02*
X2758770D01*
G01X2878770D02*
Y925860D01*
X2817100Y854190D01*
X2900440D01*
G01X2350000Y1300000D02*
X2336660Y1301670D01*
X2325000Y1308330D01*
X2315000Y1318330D01*
X2308330Y1330000D01*
X2305000Y1343330D01*
Y1356670D01*
X2308330Y1370000D01*
X2315000Y1381670D01*
X2325000Y1391670D01*
X2336660Y1398330D01*
X2350000Y1400000D01*
X2363330Y1398330D01*
X2375000Y1391670D01*
X2385000Y1381670D01*
X2391670Y1370000D01*
X2395000Y1356670D01*
Y1343330D01*
X2391670Y1330000D01*
X2385000Y1318330D01*
X2375000Y1308330D01*
X2363330Y1301670D01*
X2350000Y1300000D01*
G01X2363330Y1326670D02*
X2383330Y1300000D01*
G01X2470000D02*
Y1400000D01*
X2450000Y1380000D01*
G01Y1300000D02*
X2490000D01*
G01X2558330Y1383330D02*
X2568330Y1393330D01*
X2580000Y1398330D01*
X2593330Y1400000D01*
X2610000Y1396670D01*
X2621670Y1388330D01*
X2625000Y1378330D01*
X2623330Y1368330D01*
X2616670Y1360000D01*
X2583330Y1343330D01*
X2568330Y1331670D01*
X2558330Y1315000D01*
X2555000Y1300000D01*
X2625000D01*
G01X2390000Y1850000D02*
X2376660Y1851670D01*
X2365000Y1858330D01*
X2355000Y1868330D01*
X2348330Y1880000D01*
X2345000Y1893330D01*
Y1906670D01*
X2348330Y1920000D01*
X2355000Y1931670D01*
X2365000Y1941670D01*
X2376660Y1948330D01*
X2390000Y1950000D01*
X2403330Y1948330D01*
X2415000Y1941670D01*
X2425000Y1931670D01*
X2431670Y1920000D01*
X2435000Y1906670D01*
Y1893330D01*
X2431670Y1880000D01*
X2425000Y1868330D01*
X2415000Y1858330D01*
X2403330Y1851670D01*
X2390000Y1850000D01*
G01X2403330Y1876670D02*
X2423330Y1850000D01*
G01X2510000D02*
Y1950000D01*
X2490000Y1930000D01*
G01Y1850000D02*
X2530000D01*
G01X2598330Y1933330D02*
X2608330Y1943330D01*
X2620000Y1948330D01*
X2633330Y1950000D01*
X2650000Y1946670D01*
X2661670Y1938330D01*
X2665000Y1928330D01*
X2663330Y1918330D01*
X2656670Y1910000D01*
X2623330Y1893330D01*
X2608330Y1881670D01*
X2598330Y1865000D01*
X2595000Y1850000D01*
X2665000D01*
G01X2412520Y2065670D02*
Y2165670D01*
X2445860D01*
X2459190Y2160670D01*
X2469190Y2154000D01*
X2477520Y2144000D01*
X2484190Y2132330D01*
X2485860Y2115670D01*
X2484190Y2099000D01*
X2477520Y2087340D01*
X2469190Y2077330D01*
X2459190Y2070670D01*
X2445860Y2065670D01*
X2412520D01*
G01X2537520Y2149000D02*
X2547520Y2159000D01*
X2559190Y2164000D01*
X2572520Y2165670D01*
X2589190Y2162340D01*
X2600860Y2154000D01*
X2604190Y2144000D01*
X2602520Y2134000D01*
X2595860Y2125670D01*
X2562520Y2109000D01*
X2547520Y2097340D01*
X2537520Y2080670D01*
X2534190Y2065670D01*
X2604190D01*
G01X2412520D02*
Y2165670D01*
X2445860D01*
X2459190Y2160670D01*
X2469190Y2154000D01*
X2477520Y2144000D01*
X2484190Y2132330D01*
X2485860Y2115670D01*
X2484190Y2099000D01*
X2477520Y2087340D01*
X2469190Y2077330D01*
X2459190Y2070670D01*
X2445860Y2065670D01*
X2412520D01*
G01X2537520Y2149000D02*
X2547520Y2159000D01*
X2559190Y2164000D01*
X2572520Y2165670D01*
X2589190Y2162340D01*
X2600860Y2154000D01*
X2604190Y2144000D01*
X2602520Y2134000D01*
X2595860Y2125670D01*
X2562520Y2109000D01*
X2547520Y2097340D01*
X2537520Y2080670D01*
X2534190Y2065670D01*
X2604190D01*
G01X2412520D02*
Y2165670D01*
X2445860D01*
X2459190Y2160670D01*
X2469190Y2154000D01*
X2477520Y2144000D01*
X2484190Y2132330D01*
X2485860Y2115670D01*
X2484190Y2099000D01*
X2477520Y2087340D01*
X2469190Y2077330D01*
X2459190Y2070670D01*
X2445860Y2065670D01*
X2412520D01*
G01X2537520Y2149000D02*
X2547520Y2159000D01*
X2559190Y2164000D01*
X2572520Y2165670D01*
X2589190Y2162340D01*
X2600860Y2154000D01*
X2604190Y2144000D01*
X2602520Y2134000D01*
X2595860Y2125670D01*
X2562520Y2109000D01*
X2547520Y2097340D01*
X2537520Y2080670D01*
X2534190Y2065670D01*
X2604190D01*
G01X2481230Y3247470D02*
X2581230D01*
Y3205810D01*
X2576230Y3192470D01*
X2569560Y3184140D01*
X2556230Y3180810D01*
X2542900Y3184140D01*
X2534560Y3194140D01*
X2529560Y3205810D01*
Y3247470D01*
G01Y3205810D02*
X2481230Y3180810D01*
G01X2564560Y3125810D02*
X2574560Y3115810D01*
X2579560Y3104140D01*
X2581230Y3090810D01*
X2577900Y3074140D01*
X2569560Y3062470D01*
X2559560Y3059140D01*
X2549560Y3060810D01*
X2541230Y3067470D01*
X2524560Y3100810D01*
X2512900Y3115810D01*
X2496230Y3125810D01*
X2481230Y3129140D01*
Y3059140D01*
G01X2522890Y3005810D02*
X2534560Y2994140D01*
X2541230Y2984140D01*
X2544560Y2970810D01*
X2541230Y2959140D01*
X2534560Y2950810D01*
X2524560Y2944140D01*
X2512900Y2942470D01*
X2502900Y2944140D01*
X2492890Y2950810D01*
X2484560Y2960810D01*
X2481230Y2972470D01*
X2484560Y2985810D01*
X2494560Y2997470D01*
X2509560Y3004140D01*
X2526230Y3005810D01*
X2547890Y3002470D01*
X2559560Y2997470D01*
X2571230Y2989140D01*
X2579560Y2977470D01*
X2581230Y2965810D01*
X2577900Y2954140D01*
X2569560Y2945810D01*
G01X2481230Y3247470D02*
X2581230D01*
Y3205810D01*
X2576230Y3192470D01*
X2569560Y3184140D01*
X2556230Y3180810D01*
X2542900Y3184140D01*
X2534560Y3194140D01*
X2529560Y3205810D01*
Y3247470D01*
G01Y3205810D02*
X2481230Y3180810D01*
G01X2564560Y3125810D02*
X2574560Y3115810D01*
X2579560Y3104140D01*
X2581230Y3090810D01*
X2577900Y3074140D01*
X2569560Y3062470D01*
X2559560Y3059140D01*
X2549560Y3060810D01*
X2541230Y3067470D01*
X2524560Y3100810D01*
X2512900Y3115810D01*
X2496230Y3125810D01*
X2481230Y3129140D01*
Y3059140D01*
G01X2522890Y3005810D02*
X2534560Y2994140D01*
X2541230Y2984140D01*
X2544560Y2970810D01*
X2541230Y2959140D01*
X2534560Y2950810D01*
X2524560Y2944140D01*
X2512900Y2942470D01*
X2502900Y2944140D01*
X2492890Y2950810D01*
X2484560Y2960810D01*
X2481230Y2972470D01*
X2484560Y2985810D01*
X2494560Y2997470D01*
X2509560Y3004140D01*
X2526230Y3005810D01*
X2547890Y3002470D01*
X2559560Y2997470D01*
X2571230Y2989140D01*
X2579560Y2977470D01*
X2581230Y2965810D01*
X2577900Y2954140D01*
X2569560Y2945810D01*
G01X2481230Y3247470D02*
X2581230D01*
Y3205810D01*
X2576230Y3192470D01*
X2569560Y3184140D01*
X2556230Y3180810D01*
X2542900Y3184140D01*
X2534560Y3194140D01*
X2529560Y3205810D01*
Y3247470D01*
G01Y3205810D02*
X2481230Y3180810D01*
G01X2564560Y3125810D02*
X2574560Y3115810D01*
X2579560Y3104140D01*
X2581230Y3090810D01*
X2577900Y3074140D01*
X2569560Y3062470D01*
X2559560Y3059140D01*
X2549560Y3060810D01*
X2541230Y3067470D01*
X2524560Y3100810D01*
X2512900Y3115810D01*
X2496230Y3125810D01*
X2481230Y3129140D01*
Y3059140D01*
G01X2522890Y3005810D02*
X2534560Y2994140D01*
X2541230Y2984140D01*
X2544560Y2970810D01*
X2541230Y2959140D01*
X2534560Y2950810D01*
X2524560Y2944140D01*
X2512900Y2942470D01*
X2502900Y2944140D01*
X2492890Y2950810D01*
X2484560Y2960810D01*
X2481230Y2972470D01*
X2484560Y2985810D01*
X2494560Y2997470D01*
X2509560Y3004140D01*
X2526230Y3005810D01*
X2547890Y3002470D01*
X2559560Y2997470D01*
X2571230Y2989140D01*
X2579560Y2977470D01*
X2581230Y2965810D01*
X2577900Y2954140D01*
X2569560Y2945810D01*
G01X2316670Y3350000D02*
Y3450000D01*
X2358330D01*
X2371670Y3445000D01*
X2380000Y3438330D01*
X2383330Y3425000D01*
X2380000Y3411670D01*
X2370000Y3403330D01*
X2358330Y3398330D01*
X2316670D01*
G01X2358330D02*
X2383330Y3350000D01*
G01X2438330Y3433330D02*
X2448330Y3443330D01*
X2460000Y3448330D01*
X2473330Y3450000D01*
X2490000Y3446670D01*
X2501670Y3438330D01*
X2505000Y3428330D01*
X2503330Y3418330D01*
X2496670Y3410000D01*
X2463330Y3393330D01*
X2448330Y3381670D01*
X2438330Y3365000D01*
X2435000Y3350000D01*
X2505000D01*
G01X2561670Y3361660D02*
X2573330Y3353330D01*
X2586670Y3350000D01*
X2600000Y3353330D01*
X2611670Y3363330D01*
X2620000Y3378330D01*
X2623330Y3393330D01*
Y3411670D01*
X2620000Y3426670D01*
X2611670Y3440000D01*
X2601670Y3446670D01*
X2590000Y3450000D01*
X2576660Y3446670D01*
X2566670Y3440000D01*
X2560000Y3430000D01*
X2556670Y3416660D01*
X2560000Y3405000D01*
X2568330Y3393330D01*
X2578330Y3386660D01*
X2590000Y3385000D01*
X2603330Y3388330D01*
X2613330Y3396670D01*
X2623330Y3411670D01*
G01X2310810Y3338770D02*
Y3438770D01*
X2352470D01*
X2365810Y3433770D01*
X2374140Y3427100D01*
X2377470Y3413770D01*
X2374140Y3400440D01*
X2364140Y3392100D01*
X2352470Y3387100D01*
X2310810D01*
G01X2352470D02*
X2377470Y3338770D01*
G01X2432470Y3422100D02*
X2442470Y3432100D01*
X2454140Y3437100D01*
X2467470Y3438770D01*
X2484140Y3435440D01*
X2495810Y3427100D01*
X2499140Y3417100D01*
X2497470Y3407100D01*
X2490810Y3398770D01*
X2457470Y3382100D01*
X2442470Y3370440D01*
X2432470Y3353770D01*
X2429140Y3338770D01*
X2499140D01*
G01X2555810Y3350430D02*
X2567470Y3342100D01*
X2580810Y3338770D01*
X2594140Y3342100D01*
X2605810Y3352100D01*
X2614140Y3367100D01*
X2617470Y3382100D01*
Y3400440D01*
X2614140Y3415440D01*
X2605810Y3428770D01*
X2595810Y3435440D01*
X2584140Y3438770D01*
X2570800Y3435440D01*
X2560810Y3428770D01*
X2554140Y3418770D01*
X2550810Y3405430D01*
X2554140Y3393770D01*
X2562470Y3382100D01*
X2572470Y3375430D01*
X2584140Y3373770D01*
X2597470Y3377100D01*
X2607470Y3385440D01*
X2617470Y3400440D01*
G01X2310810Y3338770D02*
Y3438770D01*
X2352470D01*
X2365810Y3433770D01*
X2374140Y3427100D01*
X2377470Y3413770D01*
X2374140Y3400440D01*
X2364140Y3392100D01*
X2352470Y3387100D01*
X2310810D01*
G01X2352470D02*
X2377470Y3338770D01*
G01X2432470Y3422100D02*
X2442470Y3432100D01*
X2454140Y3437100D01*
X2467470Y3438770D01*
X2484140Y3435440D01*
X2495810Y3427100D01*
X2499140Y3417100D01*
X2497470Y3407100D01*
X2490810Y3398770D01*
X2457470Y3382100D01*
X2442470Y3370440D01*
X2432470Y3353770D01*
X2429140Y3338770D01*
X2499140D01*
G01X2555810Y3350430D02*
X2567470Y3342100D01*
X2580810Y3338770D01*
X2594140Y3342100D01*
X2605810Y3352100D01*
X2614140Y3367100D01*
X2617470Y3382100D01*
Y3400440D01*
X2614140Y3415440D01*
X2605810Y3428770D01*
X2595810Y3435440D01*
X2584140Y3438770D01*
X2570800Y3435440D01*
X2560810Y3428770D01*
X2554140Y3418770D01*
X2550810Y3405430D01*
X2554140Y3393770D01*
X2562470Y3382100D01*
X2572470Y3375430D01*
X2584140Y3373770D01*
X2597470Y3377100D01*
X2607470Y3385440D01*
X2617470Y3400440D01*
G01X2430810Y3768770D02*
Y3868770D01*
X2472470D01*
X2485810Y3863770D01*
X2494140Y3857100D01*
X2497470Y3843770D01*
X2494140Y3830440D01*
X2484140Y3822100D01*
X2472470Y3817100D01*
X2430810D01*
G01X2472470D02*
X2497470Y3768770D01*
G01X2552470Y3852100D02*
X2562470Y3862100D01*
X2574140Y3867100D01*
X2587470Y3868770D01*
X2604140Y3865440D01*
X2615810Y3857100D01*
X2619140Y3847100D01*
X2617470Y3837100D01*
X2610810Y3828770D01*
X2577470Y3812100D01*
X2562470Y3800440D01*
X2552470Y3783770D01*
X2549140Y3768770D01*
X2619140D01*
G01X2700810D02*
X2704140Y3790440D01*
X2709140Y3808770D01*
X2715810Y3825440D01*
X2724140Y3843770D01*
X2737470Y3868770D01*
X2670810D01*
G01X2430810Y3768770D02*
Y3868770D01*
X2472470D01*
X2485810Y3863770D01*
X2494140Y3857100D01*
X2497470Y3843770D01*
X2494140Y3830440D01*
X2484140Y3822100D01*
X2472470Y3817100D01*
X2430810D01*
G01X2472470D02*
X2497470Y3768770D01*
G01X2552470Y3852100D02*
X2562470Y3862100D01*
X2574140Y3867100D01*
X2587470Y3868770D01*
X2604140Y3865440D01*
X2615810Y3857100D01*
X2619140Y3847100D01*
X2617470Y3837100D01*
X2610810Y3828770D01*
X2577470Y3812100D01*
X2562470Y3800440D01*
X2552470Y3783770D01*
X2549140Y3768770D01*
X2619140D01*
G01X2700810D02*
X2704140Y3790440D01*
X2709140Y3808770D01*
X2715810Y3825440D01*
X2724140Y3843770D01*
X2737470Y3868770D01*
X2670810D01*
G01X2430810Y3768770D02*
Y3868770D01*
X2472470D01*
X2485810Y3863770D01*
X2494140Y3857100D01*
X2497470Y3843770D01*
X2494140Y3830440D01*
X2484140Y3822100D01*
X2472470Y3817100D01*
X2430810D01*
G01X2472470D02*
X2497470Y3768770D01*
G01X2552470Y3852100D02*
X2562470Y3862100D01*
X2574140Y3867100D01*
X2587470Y3868770D01*
X2604140Y3865440D01*
X2615810Y3857100D01*
X2619140Y3847100D01*
X2617470Y3837100D01*
X2610810Y3828770D01*
X2577470Y3812100D01*
X2562470Y3800440D01*
X2552470Y3783770D01*
X2549140Y3768770D01*
X2619140D01*
G01X2700810D02*
X2704140Y3790440D01*
X2709140Y3808770D01*
X2715810Y3825440D01*
X2724140Y3843770D01*
X2737470Y3868770D01*
X2670810D01*
G01X3341230Y587470D02*
X3441230D01*
Y545810D01*
X3436230Y532470D01*
X3429560Y524140D01*
X3416230Y520810D01*
X3402900Y524140D01*
X3394560Y534140D01*
X3389560Y545810D01*
Y587470D01*
G01Y545810D02*
X3341230Y520810D01*
G01X3361230Y470810D02*
X3349560Y460810D01*
X3342900Y447480D01*
X3341230Y432470D01*
X3342900Y419140D01*
X3351230Y405810D01*
X3361230Y397470D01*
X3371230Y395810D01*
X3382890Y399140D01*
X3391230Y410810D01*
X3394560Y422470D01*
Y437470D01*
G01Y422470D02*
X3399560Y412470D01*
X3407890Y404140D01*
X3417900Y400810D01*
X3427900Y404140D01*
X3436230Y412470D01*
X3441230Y427470D01*
X3439560Y442470D01*
X3432900Y457470D01*
G01X3382890Y345810D02*
X3394560Y334140D01*
X3401230Y324140D01*
X3404560Y310810D01*
X3401230Y299140D01*
X3394560Y290810D01*
X3384560Y284140D01*
X3372900Y282470D01*
X3362900Y284140D01*
X3352890Y290810D01*
X3344560Y300810D01*
X3341230Y312470D01*
X3344560Y325810D01*
X3354560Y337470D01*
X3369560Y344140D01*
X3386230Y345810D01*
X3407890Y342470D01*
X3419560Y337470D01*
X3431230Y329140D01*
X3439560Y317470D01*
X3441230Y305810D01*
X3437900Y294140D01*
X3429560Y285810D01*
G01X3341230Y587470D02*
X3441230D01*
Y545810D01*
X3436230Y532470D01*
X3429560Y524140D01*
X3416230Y520810D01*
X3402900Y524140D01*
X3394560Y534140D01*
X3389560Y545810D01*
Y587470D01*
G01Y545810D02*
X3341230Y520810D01*
G01X3361230Y470810D02*
X3349560Y460810D01*
X3342900Y447480D01*
X3341230Y432470D01*
X3342900Y419140D01*
X3351230Y405810D01*
X3361230Y397470D01*
X3371230Y395810D01*
X3382890Y399140D01*
X3391230Y410810D01*
X3394560Y422470D01*
Y437470D01*
G01Y422470D02*
X3399560Y412470D01*
X3407890Y404140D01*
X3417900Y400810D01*
X3427900Y404140D01*
X3436230Y412470D01*
X3441230Y427470D01*
X3439560Y442470D01*
X3432900Y457470D01*
G01X3382890Y345810D02*
X3394560Y334140D01*
X3401230Y324140D01*
X3404560Y310810D01*
X3401230Y299140D01*
X3394560Y290810D01*
X3384560Y284140D01*
X3372900Y282470D01*
X3362900Y284140D01*
X3352890Y290810D01*
X3344560Y300810D01*
X3341230Y312470D01*
X3344560Y325810D01*
X3354560Y337470D01*
X3369560Y344140D01*
X3386230Y345810D01*
X3407890Y342470D01*
X3419560Y337470D01*
X3431230Y329140D01*
X3439560Y317470D01*
X3441230Y305810D01*
X3437900Y294140D01*
X3429560Y285810D01*
G01X3341230Y587470D02*
X3441230D01*
Y545810D01*
X3436230Y532470D01*
X3429560Y524140D01*
X3416230Y520810D01*
X3402900Y524140D01*
X3394560Y534140D01*
X3389560Y545810D01*
Y587470D01*
G01Y545810D02*
X3341230Y520810D01*
G01X3361230Y470810D02*
X3349560Y460810D01*
X3342900Y447480D01*
X3341230Y432470D01*
X3342900Y419140D01*
X3351230Y405810D01*
X3361230Y397470D01*
X3371230Y395810D01*
X3382890Y399140D01*
X3391230Y410810D01*
X3394560Y422470D01*
Y437470D01*
G01Y422470D02*
X3399560Y412470D01*
X3407890Y404140D01*
X3417900Y400810D01*
X3427900Y404140D01*
X3436230Y412470D01*
X3441230Y427470D01*
X3439560Y442470D01*
X3432900Y457470D01*
G01X3382890Y345810D02*
X3394560Y334140D01*
X3401230Y324140D01*
X3404560Y310810D01*
X3401230Y299140D01*
X3394560Y290810D01*
X3384560Y284140D01*
X3372900Y282470D01*
X3362900Y284140D01*
X3352890Y290810D01*
X3344560Y300810D01*
X3341230Y312470D01*
X3344560Y325810D01*
X3354560Y337470D01*
X3369560Y344140D01*
X3386230Y345810D01*
X3407890Y342470D01*
X3419560Y337470D01*
X3431230Y329140D01*
X3439560Y317470D01*
X3441230Y305810D01*
X3437900Y294140D01*
X3429560Y285810D01*
G01X3550000Y1130000D02*
X3551670Y1143340D01*
X3558330Y1155000D01*
X3568330Y1165000D01*
X3580000Y1171670D01*
X3593330Y1175000D01*
X3606670D01*
X3620000Y1171670D01*
X3631670Y1165000D01*
X3641670Y1155000D01*
X3648330Y1143340D01*
X3650000Y1130000D01*
X3648330Y1116670D01*
X3641670Y1105000D01*
X3631670Y1095000D01*
X3620000Y1088330D01*
X3606670Y1085000D01*
X3593330D01*
X3580000Y1088330D01*
X3568330Y1095000D01*
X3558330Y1105000D01*
X3551670Y1116670D01*
X3550000Y1130000D01*
G01X3576670Y1116670D02*
X3550000Y1096670D01*
G01Y1010000D02*
X3650000D01*
X3630000Y1030000D01*
G01X3550000D02*
Y990000D01*
G01Y870000D02*
X3650000D01*
X3578330Y931670D01*
Y848330D01*
G01X3070000Y610000D02*
X3056660Y611670D01*
X3045000Y618330D01*
X3035000Y628330D01*
X3028330Y640000D01*
X3025000Y653330D01*
Y666670D01*
X3028330Y680000D01*
X3035000Y691670D01*
X3045000Y701670D01*
X3056660Y708330D01*
X3070000Y710000D01*
X3083330Y708330D01*
X3095000Y701670D01*
X3105000Y691670D01*
X3111670Y680000D01*
X3115000Y666670D01*
Y653330D01*
X3111670Y640000D01*
X3105000Y628330D01*
X3095000Y618330D01*
X3083330Y611670D01*
X3070000Y610000D01*
G01X3083330Y636670D02*
X3103330Y610000D01*
G01X3190000D02*
Y710000D01*
X3170000Y690000D01*
G01Y610000D02*
X3210000D01*
G01X3330000D02*
Y710000D01*
X3268330Y638330D01*
X3351670D01*
G01X3580000Y1740000D02*
X3566660Y1741670D01*
X3555000Y1748330D01*
X3545000Y1758330D01*
X3538330Y1770000D01*
X3535000Y1783330D01*
Y1796670D01*
X3538330Y1810000D01*
X3545000Y1821670D01*
X3555000Y1831670D01*
X3566660Y1838330D01*
X3580000Y1840000D01*
X3593330Y1838330D01*
X3605000Y1831670D01*
X3615000Y1821670D01*
X3621670Y1810000D01*
X3625000Y1796670D01*
Y1783330D01*
X3621670Y1770000D01*
X3615000Y1758330D01*
X3605000Y1748330D01*
X3593330Y1741670D01*
X3580000Y1740000D01*
G01X3593330Y1766670D02*
X3613330Y1740000D01*
G01X3700000D02*
Y1840000D01*
X3680000Y1820000D01*
G01Y1740000D02*
X3720000D01*
G01X3783330Y1760000D02*
X3793330Y1748330D01*
X3806660Y1741670D01*
X3821670Y1740000D01*
X3835000Y1741670D01*
X3848330Y1750000D01*
X3856670Y1760000D01*
X3858330Y1770000D01*
X3855000Y1781660D01*
X3843330Y1790000D01*
X3831670Y1793330D01*
X3816670D01*
G01X3831670D02*
X3841670Y1798330D01*
X3850000Y1806660D01*
X3853330Y1816670D01*
X3850000Y1826670D01*
X3841670Y1835000D01*
X3826670Y1840000D01*
X3811670Y1838330D01*
X3796670Y1831670D01*
G01X3580000Y1740000D02*
X3566660Y1741670D01*
X3555000Y1748330D01*
X3545000Y1758330D01*
X3538330Y1770000D01*
X3535000Y1783330D01*
Y1796670D01*
X3538330Y1810000D01*
X3545000Y1821670D01*
X3555000Y1831670D01*
X3566660Y1838330D01*
X3580000Y1840000D01*
X3593330Y1838330D01*
X3605000Y1831670D01*
X3615000Y1821670D01*
X3621670Y1810000D01*
X3625000Y1796670D01*
Y1783330D01*
X3621670Y1770000D01*
X3615000Y1758330D01*
X3605000Y1748330D01*
X3593330Y1741670D01*
X3580000Y1740000D01*
G01X3593330Y1766670D02*
X3613330Y1740000D01*
G01X3700000D02*
Y1840000D01*
X3680000Y1820000D01*
G01Y1740000D02*
X3720000D01*
G01X3783330Y1760000D02*
X3793330Y1748330D01*
X3806660Y1741670D01*
X3821670Y1740000D01*
X3835000Y1741670D01*
X3848330Y1750000D01*
X3856670Y1760000D01*
X3858330Y1770000D01*
X3855000Y1781660D01*
X3843330Y1790000D01*
X3831670Y1793330D01*
X3816670D01*
G01X3831670D02*
X3841670Y1798330D01*
X3850000Y1806660D01*
X3853330Y1816670D01*
X3850000Y1826670D01*
X3841670Y1835000D01*
X3826670Y1840000D01*
X3811670Y1838330D01*
X3796670Y1831670D01*
G01X2942530Y1601230D02*
Y1701230D01*
X2984190D01*
X2997530Y1696230D01*
X3005860Y1689560D01*
X3009190Y1676230D01*
X3005860Y1662900D01*
X2995860Y1654560D01*
X2984190Y1649560D01*
X2942530D01*
G01X2984190D02*
X3009190Y1601230D01*
G01X3064190Y1684560D02*
X3074190Y1694560D01*
X3085860Y1699560D01*
X3099190Y1701230D01*
X3115860Y1697900D01*
X3127530Y1689560D01*
X3130860Y1679560D01*
X3129190Y1669560D01*
X3122530Y1661230D01*
X3089190Y1644560D01*
X3074190Y1632900D01*
X3064190Y1616230D01*
X3060860Y1601230D01*
X3130860D01*
G01X3184190Y1684560D02*
X3194190Y1694560D01*
X3205860Y1699560D01*
X3219190Y1701230D01*
X3235860Y1697900D01*
X3247530Y1689560D01*
X3250860Y1679560D01*
X3249190Y1669560D01*
X3242530Y1661230D01*
X3209190Y1644560D01*
X3194190Y1632900D01*
X3184190Y1616230D01*
X3180860Y1601230D01*
X3250860D01*
G01X2942530D02*
Y1701230D01*
X2984190D01*
X2997530Y1696230D01*
X3005860Y1689560D01*
X3009190Y1676230D01*
X3005860Y1662900D01*
X2995860Y1654560D01*
X2984190Y1649560D01*
X2942530D01*
G01X2984190D02*
X3009190Y1601230D01*
G01X3064190Y1684560D02*
X3074190Y1694560D01*
X3085860Y1699560D01*
X3099190Y1701230D01*
X3115860Y1697900D01*
X3127530Y1689560D01*
X3130860Y1679560D01*
X3129190Y1669560D01*
X3122530Y1661230D01*
X3089190Y1644560D01*
X3074190Y1632900D01*
X3064190Y1616230D01*
X3060860Y1601230D01*
X3130860D01*
G01X3184190Y1684560D02*
X3194190Y1694560D01*
X3205860Y1699560D01*
X3219190Y1701230D01*
X3235860Y1697900D01*
X3247530Y1689560D01*
X3250860Y1679560D01*
X3249190Y1669560D01*
X3242530Y1661230D01*
X3209190Y1644560D01*
X3194190Y1632900D01*
X3184190Y1616230D01*
X3180860Y1601230D01*
X3250860D01*
G01X2942530D02*
Y1701230D01*
X2984190D01*
X2997530Y1696230D01*
X3005860Y1689560D01*
X3009190Y1676230D01*
X3005860Y1662900D01*
X2995860Y1654560D01*
X2984190Y1649560D01*
X2942530D01*
G01X2984190D02*
X3009190Y1601230D01*
G01X3064190Y1684560D02*
X3074190Y1694560D01*
X3085860Y1699560D01*
X3099190Y1701230D01*
X3115860Y1697900D01*
X3127530Y1689560D01*
X3130860Y1679560D01*
X3129190Y1669560D01*
X3122530Y1661230D01*
X3089190Y1644560D01*
X3074190Y1632900D01*
X3064190Y1616230D01*
X3060860Y1601230D01*
X3130860D01*
G01X3184190Y1684560D02*
X3194190Y1694560D01*
X3205860Y1699560D01*
X3219190Y1701230D01*
X3235860Y1697900D01*
X3247530Y1689560D01*
X3250860Y1679560D01*
X3249190Y1669560D01*
X3242530Y1661230D01*
X3209190Y1644560D01*
X3194190Y1632900D01*
X3184190Y1616230D01*
X3180860Y1601230D01*
X3250860D01*
G01X3452530Y1242900D02*
X3442530Y1247900D01*
X3430860Y1251230D01*
X3417530D01*
X3402520Y1246230D01*
X3390860Y1237900D01*
X3382530Y1227900D01*
X3375860Y1211230D01*
X3374190Y1196230D01*
X3377530Y1181230D01*
X3382530Y1171230D01*
X3392530Y1161230D01*
X3404190Y1154560D01*
X3415860Y1151230D01*
X3427530D01*
X3439190Y1154560D01*
X3449190Y1159560D01*
X3457530Y1166230D01*
G01X3535860Y1151230D02*
Y1251230D01*
X3515860Y1231230D01*
G01Y1151230D02*
X3555860D01*
G01X3655860D02*
X3667530Y1152900D01*
X3680860Y1157900D01*
X3689190Y1166230D01*
X3692530Y1177900D01*
X3689190Y1189560D01*
X3679190Y1199560D01*
X3664190Y1204560D01*
X3647530D01*
X3637530Y1207900D01*
X3629190Y1216230D01*
X3625860Y1227900D01*
X3630860Y1239560D01*
X3642520Y1247900D01*
X3655860Y1251230D01*
X3669190Y1247900D01*
X3680860Y1239560D01*
X3685860Y1227900D01*
X3682530Y1216230D01*
X3674190Y1207900D01*
X3664190Y1204560D01*
X3647530D01*
X3632530Y1199560D01*
X3622530Y1189560D01*
X3619190Y1177900D01*
X3622530Y1166230D01*
X3630860Y1157900D01*
X3644190Y1152900D01*
X3655860Y1151230D01*
G01X3452530Y1242900D02*
X3442530Y1247900D01*
X3430860Y1251230D01*
X3417530D01*
X3402520Y1246230D01*
X3390860Y1237900D01*
X3382530Y1227900D01*
X3375860Y1211230D01*
X3374190Y1196230D01*
X3377530Y1181230D01*
X3382530Y1171230D01*
X3392530Y1161230D01*
X3404190Y1154560D01*
X3415860Y1151230D01*
X3427530D01*
X3439190Y1154560D01*
X3449190Y1159560D01*
X3457530Y1166230D01*
G01X3535860Y1151230D02*
Y1251230D01*
X3515860Y1231230D01*
G01Y1151230D02*
X3555860D01*
G01X3655860D02*
X3667530Y1152900D01*
X3680860Y1157900D01*
X3689190Y1166230D01*
X3692530Y1177900D01*
X3689190Y1189560D01*
X3679190Y1199560D01*
X3664190Y1204560D01*
X3647530D01*
X3637530Y1207900D01*
X3629190Y1216230D01*
X3625860Y1227900D01*
X3630860Y1239560D01*
X3642520Y1247900D01*
X3655860Y1251230D01*
X3669190Y1247900D01*
X3680860Y1239560D01*
X3685860Y1227900D01*
X3682530Y1216230D01*
X3674190Y1207900D01*
X3664190Y1204560D01*
X3647530D01*
X3632530Y1199560D01*
X3622530Y1189560D01*
X3619190Y1177900D01*
X3622530Y1166230D01*
X3630860Y1157900D01*
X3644190Y1152900D01*
X3655860Y1151230D01*
G01X3452530Y1242900D02*
X3442530Y1247900D01*
X3430860Y1251230D01*
X3417530D01*
X3402520Y1246230D01*
X3390860Y1237900D01*
X3382530Y1227900D01*
X3375860Y1211230D01*
X3374190Y1196230D01*
X3377530Y1181230D01*
X3382530Y1171230D01*
X3392530Y1161230D01*
X3404190Y1154560D01*
X3415860Y1151230D01*
X3427530D01*
X3439190Y1154560D01*
X3449190Y1159560D01*
X3457530Y1166230D01*
G01X3535860Y1151230D02*
Y1251230D01*
X3515860Y1231230D01*
G01Y1151230D02*
X3555860D01*
G01X3655860D02*
X3667530Y1152900D01*
X3680860Y1157900D01*
X3689190Y1166230D01*
X3692530Y1177900D01*
X3689190Y1189560D01*
X3679190Y1199560D01*
X3664190Y1204560D01*
X3647530D01*
X3637530Y1207900D01*
X3629190Y1216230D01*
X3625860Y1227900D01*
X3630860Y1239560D01*
X3642520Y1247900D01*
X3655860Y1251230D01*
X3669190Y1247900D01*
X3680860Y1239560D01*
X3685860Y1227900D01*
X3682530Y1216230D01*
X3674190Y1207900D01*
X3664190Y1204560D01*
X3647530D01*
X3632530Y1199560D01*
X3622530Y1189560D01*
X3619190Y1177900D01*
X3622530Y1166230D01*
X3630860Y1157900D01*
X3644190Y1152900D01*
X3655860Y1151230D01*
G01X2990620Y2165980D02*
X2998950Y2155980D01*
X3008950Y2149310D01*
X3020620Y2145980D01*
X3033950Y2149310D01*
X3043950Y2155980D01*
X3053950Y2165980D01*
X3057280Y2179310D01*
Y2245980D01*
G01X3112280Y2229310D02*
X3122280Y2239310D01*
X3133950Y2244310D01*
X3147280Y2245980D01*
X3163950Y2242650D01*
X3175620Y2234310D01*
X3178950Y2224310D01*
X3177280Y2214310D01*
X3170620Y2205980D01*
X3137280Y2189310D01*
X3122280Y2177650D01*
X3112280Y2160980D01*
X3108950Y2145980D01*
X3178950D01*
G01X2990620Y2165980D02*
X2998950Y2155980D01*
X3008950Y2149310D01*
X3020620Y2145980D01*
X3033950Y2149310D01*
X3043950Y2155980D01*
X3053950Y2165980D01*
X3057280Y2179310D01*
Y2245980D01*
G01X3112280Y2229310D02*
X3122280Y2239310D01*
X3133950Y2244310D01*
X3147280Y2245980D01*
X3163950Y2242650D01*
X3175620Y2234310D01*
X3178950Y2224310D01*
X3177280Y2214310D01*
X3170620Y2205980D01*
X3137280Y2189310D01*
X3122280Y2177650D01*
X3112280Y2160980D01*
X3108950Y2145980D01*
X3178950D01*
G01X2990620Y2165980D02*
X2998950Y2155980D01*
X3008950Y2149310D01*
X3020620Y2145980D01*
X3033950Y2149310D01*
X3043950Y2155980D01*
X3053950Y2165980D01*
X3057280Y2179310D01*
Y2245980D01*
G01X3112280Y2229310D02*
X3122280Y2239310D01*
X3133950Y2244310D01*
X3147280Y2245980D01*
X3163950Y2242650D01*
X3175620Y2234310D01*
X3178950Y2224310D01*
X3177280Y2214310D01*
X3170620Y2205980D01*
X3137280Y2189310D01*
X3122280Y2177650D01*
X3112280Y2160980D01*
X3108950Y2145980D01*
X3178950D01*
G01X3510690Y2773950D02*
X3519020Y2763950D01*
X3529020Y2757280D01*
X3540690Y2753950D01*
X3554020Y2757280D01*
X3564020Y2763950D01*
X3574020Y2773950D01*
X3577350Y2787280D01*
Y2853950D01*
G01X3664020Y2753950D02*
Y2853950D01*
X3644020Y2833950D01*
G01Y2753950D02*
X3684020D01*
G01X3510690Y2773950D02*
X3519020Y2763950D01*
X3529020Y2757280D01*
X3540690Y2753950D01*
X3554020Y2757280D01*
X3564020Y2763950D01*
X3574020Y2773950D01*
X3577350Y2787280D01*
Y2853950D01*
G01X3664020Y2753950D02*
Y2853950D01*
X3644020Y2833950D01*
G01Y2753950D02*
X3684020D01*
G01X3510690Y2773950D02*
X3519020Y2763950D01*
X3529020Y2757280D01*
X3540690Y2753950D01*
X3554020Y2757280D01*
X3564020Y2763950D01*
X3574020Y2773950D01*
X3577350Y2787280D01*
Y2853950D01*
G01X3664020Y2753950D02*
Y2853950D01*
X3644020Y2833950D01*
G01Y2753950D02*
X3684020D01*
G01X3246670Y2931670D02*
X3236670Y2936670D01*
X3225000Y2940000D01*
X3211670D01*
X3196660Y2935000D01*
X3185000Y2926670D01*
X3176670Y2916670D01*
X3170000Y2900000D01*
X3168330Y2885000D01*
X3171670Y2870000D01*
X3176670Y2860000D01*
X3186670Y2850000D01*
X3198330Y2843330D01*
X3210000Y2840000D01*
X3221670D01*
X3233330Y2843330D01*
X3243330Y2848330D01*
X3251670Y2855000D01*
G01X3330000Y2840000D02*
Y2940000D01*
X3310000Y2920000D01*
G01Y2840000D02*
X3350000D01*
G01X3421670Y2851660D02*
X3433330Y2843330D01*
X3446670Y2840000D01*
X3460000Y2843330D01*
X3471670Y2853330D01*
X3480000Y2868330D01*
X3483330Y2883330D01*
Y2901670D01*
X3480000Y2916670D01*
X3471670Y2930000D01*
X3461670Y2936670D01*
X3450000Y2940000D01*
X3436660Y2936670D01*
X3426670Y2930000D01*
X3420000Y2920000D01*
X3416670Y2906660D01*
X3420000Y2895000D01*
X3428330Y2883330D01*
X3438330Y2876660D01*
X3450000Y2875000D01*
X3463330Y2878330D01*
X3473330Y2886670D01*
X3483330Y2901670D01*
G01X3252530Y2932900D02*
X3242530Y2937900D01*
X3230860Y2941230D01*
X3217530D01*
X3202520Y2936230D01*
X3190860Y2927900D01*
X3182530Y2917900D01*
X3175860Y2901230D01*
X3174190Y2886230D01*
X3177530Y2871230D01*
X3182530Y2861230D01*
X3192530Y2851230D01*
X3204190Y2844560D01*
X3215860Y2841230D01*
X3227530D01*
X3239190Y2844560D01*
X3249190Y2849560D01*
X3257530Y2856230D01*
G01X3335860Y2841230D02*
Y2941230D01*
X3315860Y2921230D01*
G01Y2841230D02*
X3355860D01*
G01X3427530Y2852890D02*
X3439190Y2844560D01*
X3452530Y2841230D01*
X3465860Y2844560D01*
X3477530Y2854560D01*
X3485860Y2869560D01*
X3489190Y2884560D01*
Y2902900D01*
X3485860Y2917900D01*
X3477530Y2931230D01*
X3467530Y2937900D01*
X3455860Y2941230D01*
X3442520Y2937900D01*
X3432530Y2931230D01*
X3425860Y2921230D01*
X3422530Y2907890D01*
X3425860Y2896230D01*
X3434190Y2884560D01*
X3444190Y2877890D01*
X3455860Y2876230D01*
X3469190Y2879560D01*
X3479190Y2887900D01*
X3489190Y2902900D01*
G01X3252530Y2932900D02*
X3242530Y2937900D01*
X3230860Y2941230D01*
X3217530D01*
X3202520Y2936230D01*
X3190860Y2927900D01*
X3182530Y2917900D01*
X3175860Y2901230D01*
X3174190Y2886230D01*
X3177530Y2871230D01*
X3182530Y2861230D01*
X3192530Y2851230D01*
X3204190Y2844560D01*
X3215860Y2841230D01*
X3227530D01*
X3239190Y2844560D01*
X3249190Y2849560D01*
X3257530Y2856230D01*
G01X3335860Y2841230D02*
Y2941230D01*
X3315860Y2921230D01*
G01Y2841230D02*
X3355860D01*
G01X3427530Y2852890D02*
X3439190Y2844560D01*
X3452530Y2841230D01*
X3465860Y2844560D01*
X3477530Y2854560D01*
X3485860Y2869560D01*
X3489190Y2884560D01*
Y2902900D01*
X3485860Y2917900D01*
X3477530Y2931230D01*
X3467530Y2937900D01*
X3455860Y2941230D01*
X3442520Y2937900D01*
X3432530Y2931230D01*
X3425860Y2921230D01*
X3422530Y2907890D01*
X3425860Y2896230D01*
X3434190Y2884560D01*
X3444190Y2877890D01*
X3455860Y2876230D01*
X3469190Y2879560D01*
X3479190Y2887900D01*
X3489190Y2902900D01*
G01X3017900Y3744140D02*
Y3844140D01*
X3059560D01*
X3072900Y3839140D01*
X3081230Y3832470D01*
X3084560Y3819140D01*
X3081230Y3805810D01*
X3071230Y3797470D01*
X3059560Y3792470D01*
X3017900D01*
G01X3059560D02*
X3084560Y3744140D01*
G01X3134560Y3764140D02*
X3144560Y3752470D01*
X3157890Y3745810D01*
X3172900Y3744140D01*
X3186230Y3745810D01*
X3199560Y3754140D01*
X3207900Y3764140D01*
X3209560Y3774140D01*
X3206230Y3785800D01*
X3194560Y3794140D01*
X3182900Y3797470D01*
X3167900D01*
G01X3182900D02*
X3192900Y3802470D01*
X3201230Y3810800D01*
X3204560Y3820810D01*
X3201230Y3830810D01*
X3192900Y3839140D01*
X3177900Y3844140D01*
X3162900Y3842470D01*
X3147900Y3835810D01*
G01X3287900Y3744140D02*
X3291230Y3765810D01*
X3296230Y3784140D01*
X3302900Y3800810D01*
X3311230Y3819140D01*
X3324560Y3844140D01*
X3257900D01*
G01X3017900Y3744140D02*
Y3844140D01*
X3059560D01*
X3072900Y3839140D01*
X3081230Y3832470D01*
X3084560Y3819140D01*
X3081230Y3805810D01*
X3071230Y3797470D01*
X3059560Y3792470D01*
X3017900D01*
G01X3059560D02*
X3084560Y3744140D01*
G01X3134560Y3764140D02*
X3144560Y3752470D01*
X3157890Y3745810D01*
X3172900Y3744140D01*
X3186230Y3745810D01*
X3199560Y3754140D01*
X3207900Y3764140D01*
X3209560Y3774140D01*
X3206230Y3785800D01*
X3194560Y3794140D01*
X3182900Y3797470D01*
X3167900D01*
G01X3182900D02*
X3192900Y3802470D01*
X3201230Y3810800D01*
X3204560Y3820810D01*
X3201230Y3830810D01*
X3192900Y3839140D01*
X3177900Y3844140D01*
X3162900Y3842470D01*
X3147900Y3835810D01*
G01X3287900Y3744140D02*
X3291230Y3765810D01*
X3296230Y3784140D01*
X3302900Y3800810D01*
X3311230Y3819140D01*
X3324560Y3844140D01*
X3257900D01*
G01X3017900Y3744140D02*
Y3844140D01*
X3059560D01*
X3072900Y3839140D01*
X3081230Y3832470D01*
X3084560Y3819140D01*
X3081230Y3805810D01*
X3071230Y3797470D01*
X3059560Y3792470D01*
X3017900D01*
G01X3059560D02*
X3084560Y3744140D01*
G01X3134560Y3764140D02*
X3144560Y3752470D01*
X3157890Y3745810D01*
X3172900Y3744140D01*
X3186230Y3745810D01*
X3199560Y3754140D01*
X3207900Y3764140D01*
X3209560Y3774140D01*
X3206230Y3785800D01*
X3194560Y3794140D01*
X3182900Y3797470D01*
X3167900D01*
G01X3182900D02*
X3192900Y3802470D01*
X3201230Y3810800D01*
X3204560Y3820810D01*
X3201230Y3830810D01*
X3192900Y3839140D01*
X3177900Y3844140D01*
X3162900Y3842470D01*
X3147900Y3835810D01*
G01X3287900Y3744140D02*
X3291230Y3765810D01*
X3296230Y3784140D01*
X3302900Y3800810D01*
X3311230Y3819140D01*
X3324560Y3844140D01*
X3257900D01*
G54D11*
G01X264750Y440120D02*
Y846520D01*
G01D02*
X455250D01*
G01D02*
Y440120D01*
G01D02*
X264750D01*
G01X589880Y2714750D02*
X183480D01*
G01D02*
Y2905250D01*
G01D02*
X589880D01*
G01D02*
Y2714750D01*
G01X364750Y3430120D02*
Y3836520D01*
G01D02*
X555250D01*
G01D02*
Y3430120D01*
G01D02*
X364750D01*
G01X1044750Y430120D02*
Y836520D01*
G01D02*
X1235250D01*
G01D02*
Y430120D01*
G01D02*
X1044750D01*
G01X1559880Y1594750D02*
X1153480D01*
G01D02*
Y1785250D01*
G01D02*
X1559880D01*
G01X1059880Y3134750D02*
X653480D01*
G01D02*
Y3325250D01*
G01D02*
X1059880D01*
G01D02*
Y3134750D01*
G01X1110120Y2835250D02*
X1516520D01*
G01Y2644750D02*
X1110120D01*
G01D02*
Y2835250D01*
G01X1294750Y3450120D02*
Y3856520D01*
G01D02*
X1485250D01*
G01Y3450120D02*
X1294750D01*
G01X1444750Y420120D02*
Y826520D01*
G01D02*
X1635250D01*
G01D02*
Y420120D01*
G01D02*
X1444750D01*
G01X1854750Y410120D02*
Y816520D01*
G01D02*
X2045250D01*
G01D02*
Y410120D01*
G01D02*
X1854750D01*
G01X1559880Y1785250D02*
Y1594750D01*
G01X2169880Y1534750D02*
X1763480D01*
G01D02*
Y1725250D01*
G01D02*
X2169880D01*
G01X1810120Y3315250D02*
X2216520D01*
G01Y3124750D02*
X1810120D01*
G01D02*
Y3315250D01*
G01X1516520Y2835250D02*
Y2644750D01*
G01X2060280Y2870810D02*
X2461600D01*
G01Y2609190D02*
X2060280D01*
G01D02*
Y2870810D01*
G01X2000120Y3855250D02*
X2406520D01*
G01Y3664750D02*
X2000120D01*
G01D02*
Y3855250D01*
G01X1485250Y3856520D02*
Y3450120D01*
G01X2254750Y390120D02*
Y796520D01*
G01D02*
X2445250D01*
G01D02*
Y390120D01*
G01D02*
X2254750D01*
G01X2845250Y769880D02*
Y363480D01*
G01D02*
X2654750D01*
G01D02*
Y769880D01*
G01D02*
X2845250D01*
G01Y1379880D02*
Y973480D01*
G01D02*
X2654750D01*
G01D02*
Y1379880D01*
G01X3309880Y1734750D02*
X2903480D01*
G01D02*
Y1925250D01*
G01X2169880Y1725250D02*
Y1534750D01*
G01X2654750Y1379880D02*
X2845250D01*
G01X2903480Y1925250D02*
X3309880D01*
G01X2829720Y2289190D02*
X2428400D01*
G01D02*
Y2398410D01*
G01D02*
X2406810Y2420000D01*
G01D02*
X2428400Y2441590D01*
G01D02*
Y2550810D01*
G01D02*
X2829720D01*
G01D02*
Y2289190D01*
G01X2624750Y2880120D02*
Y3286520D01*
G01D02*
X2815250D01*
G01D02*
Y2880120D01*
G01D02*
X2624750D01*
G01X2216520Y3315250D02*
Y3124750D01*
G01X2461600Y2870810D02*
Y2761590D01*
G01D02*
X2483190Y2740000D01*
G01D02*
X2461600Y2718410D01*
G01D02*
Y2609190D01*
G01X2764750Y3420120D02*
Y3826520D01*
G01D02*
X2955250D01*
G01Y3420120D02*
X2764750D01*
G01X2406520Y3855250D02*
Y3664750D01*
G01X3604750Y420120D02*
Y826520D01*
G01D02*
X3795250D01*
G01Y420120D02*
X3604750D01*
G01X3114750Y1130120D02*
Y1536520D01*
G01D02*
X3305250D01*
G01D02*
Y1130120D01*
G01D02*
X3114750D01*
G01X3309880Y1925250D02*
Y1734750D01*
G01X3799880Y1354750D02*
X3393480D01*
G01D02*
Y1545250D01*
G01D02*
X3799880D01*
G01X2991570Y2680500D02*
Y2299500D01*
G01D02*
X3867870D01*
G01X3479500Y3867870D02*
Y2991570D01*
G01D02*
X3860500D01*
G01X3867870Y2680500D02*
X2991570D01*
G01X3389880Y2984750D02*
X2983480D01*
G01D02*
Y3175250D01*
G01D02*
X3389880D01*
G01D02*
Y2984750D01*
G01X2955250Y3826520D02*
Y3420120D01*
G01X3860500Y3867870D02*
X3479500D01*
G01X3795250Y826520D02*
Y420120D01*
G01X3799880Y1545250D02*
Y1354750D01*
G01X3867870Y2299500D02*
Y2680500D01*
G01X3860500Y2991570D02*
Y3867870D01*
M02*
