G04 ================== begin FILE IDENTIFICATION RECORD ==================*
G04 Layout Name:  C:/PCB/Schematic/allegro/oscilatorWien3.brd*
G04 Film Name:    TOP*
G04 File Format:  Gerber RS274X*
G04 File Origin:  Cadence Allegro 17.2-S025*
G04 Origin Date:  Fri Dec 05 16:03:04 2025*
G04 *
G04 Layer:  ETCH/TOP*
G04 Layer:  PIN/TOP*
G04 Layer:  VIA CLASS/TOP*
G04 *
G04 Offset:    (0.0000 0.0000)*
G04 Mirror:    No*
G04 Mode:      Positive*
G04 Rotation:  0*
G04 FullContactRelief:  No*
G04 UndefLineWidth:     0.0000*
G04 ================== end FILE IDENTIFICATION RECORD ====================*
%FSLAX25Y25*MOMM*%
%IR0*IPPOS*OFA0.00000B0.00000*MIA0B0*SFA1.00000B1.00000*%
%ADD13C,.8*%
%ADD10R,.9144X1.27*%
%ADD11R,1.27X.9144*%
%ADD12R,1.27X1.27*%
%ADD16R,3.048X1.9304*%
%ADD14R,1.2192X1.9304*%
%ADD15R,1.9304X3.048*%
%ADD17C,.45*%
%ADD18C,.65*%
G75*
%LPD*%
G75*
G54D10*
X230000Y1030000D03*
X438280D03*
X334140Y1235740D03*
X354140Y2375740D03*
X250000Y2170000D03*
X458280D03*
X855860Y1064260D03*
X835860Y1484260D03*
X940000Y1690000D03*
X731720D03*
X960000Y1270000D03*
X751720D03*
X1354140Y2395740D03*
X1250000Y2190000D03*
X824140Y2175740D03*
X720000Y1970000D03*
X928280D03*
X2141720Y1200000D03*
X1860000Y1860000D03*
X2068280D03*
X1458280Y2190000D03*
X1964140Y2065740D03*
X2245860Y994260D03*
X2350000Y1200000D03*
G54D11*
X660000Y720000D03*
Y511720D03*
X505740Y1655860D03*
X300000Y1760000D03*
Y1551720D03*
X244260Y3184140D03*
X450000Y3080000D03*
Y3288280D03*
X865740Y615860D03*
X1415740Y1085860D03*
X1210000Y981720D03*
Y1190000D03*
X744260Y2604140D03*
X950000Y2500000D03*
Y2708280D03*
X1264260Y3234140D03*
X864260Y3684140D03*
X1070000Y3580000D03*
Y3788280D03*
X1710000Y1101720D03*
X1915740Y1205860D03*
X1710000Y1310000D03*
X1794260Y2374140D03*
X2000000Y2270000D03*
Y2478280D03*
X1470000Y3130000D03*
Y3338280D03*
X1885740Y2835860D03*
X1680000Y2940000D03*
Y2731720D03*
X2374260Y1644140D03*
X2580000Y1540000D03*
Y1748280D03*
X3214260Y904140D03*
X3420000Y800000D03*
Y1008280D03*
X3665740Y2045860D03*
X3460000Y2150000D03*
Y1941720D03*
G54D12*
X360000Y750000D03*
Y536640D03*
X280000Y2810000D03*
X493360D03*
X460000Y3740000D03*
Y3526640D03*
X1140000Y740000D03*
Y526640D03*
X1250000Y1690000D03*
X750000Y3230000D03*
X963360D03*
X1420000Y2740000D03*
X1206640D03*
X1390000Y3760000D03*
Y3546640D03*
X1540000Y730000D03*
Y516640D03*
X1950000Y720000D03*
Y506640D03*
X1463360Y1690000D03*
X1860000Y1630000D03*
X2073360D03*
X2120000Y3220000D03*
X1906640D03*
X2096640Y3760000D03*
X2350000Y700000D03*
Y486640D03*
X2750000Y460000D03*
Y673360D03*
Y1070000D03*
Y1283360D03*
X2720000Y3190000D03*
Y2976640D03*
X2860000Y3730000D03*
Y3516640D03*
X2310000Y3760000D03*
X3700000Y730000D03*
Y516640D03*
X3210000Y1440000D03*
Y1226640D03*
X3000000Y1830000D03*
X3213360D03*
X3490000Y1450000D03*
X3703360D03*
X3080000Y3080000D03*
X3293360D03*
G54D13*
X780000Y900000D03*
X860000Y360000D03*
X1270000Y1350000D03*
X960000Y1410000D03*
X970000Y2370000D03*
X1060000Y2610000D03*
X1140000Y2364800D03*
X1230000Y2430000D03*
X970000Y2990000D03*
X864260Y3540000D03*
X1200000Y3560000D03*
X1580000Y1350000D03*
X1690000Y1760000D03*
X1915740Y1480000D03*
X1680000Y1620000D03*
X1720000Y2550000D03*
X1630000Y2440000D03*
X2020000Y3030000D03*
X2120000Y3540000D03*
X1690000Y3530000D03*
X2245860Y870000D03*
X2550000Y770000D03*
X2710000Y1630000D03*
X2840000Y1670000D03*
X2750000Y1460000D03*
X2530000Y2600000D03*
X2680000Y2180000D03*
X2940000Y2220000D03*
X2510000Y2850000D03*
X2330000Y3130000D03*
X2680000Y2700000D03*
X2940000Y3320000D03*
X2590000Y3550000D03*
X3200000Y500000D03*
X3490000Y650000D03*
X2980000Y870000D03*
X3180000Y760000D03*
X3550000Y1250000D03*
X3420000Y1780000D03*
X3350000Y1650000D03*
X3320000Y2065740D03*
X3040000D03*
X3212500Y2000000D03*
X3340000Y2220000D03*
X3090000Y2810000D03*
X3200000Y3500000D03*
G54D14*
X2159340Y2740000D03*
X2530000Y2420000D03*
X2730660D03*
X2360000Y2740000D03*
G54D15*
X3130000Y2490000D03*
X3729440D03*
G54D16*
X3670000Y3130000D03*
Y3729440D03*
G54D17*
G01X230000Y1030000D02*
X306200D01*
X334140Y1057940D01*
Y1235740D01*
G01X360000Y750000D02*
X465780D01*
X541500Y825720D01*
Y1362420D01*
X731720Y1552640D01*
Y1690000D01*
G01X334140Y1235740D02*
Y1300300D01*
X300000Y1334440D01*
Y1551720D01*
G01X505740Y1655860D02*
X327940D01*
X300000Y1683800D01*
Y1760000D01*
G01D02*
Y1836200D01*
X250000Y1886200D01*
Y2170000D01*
G01X493360Y2810000D02*
Y2627560D01*
X720000Y2400920D01*
Y1970000D01*
G01X354140Y2375740D02*
Y2735860D01*
X280000Y2810000D01*
G01D02*
X373990Y2903990D01*
Y3072190D01*
X262040Y3184140D01*
X244260D01*
G01D02*
X345860D01*
X450000Y3080000D01*
G01X460000Y3526640D02*
X561000Y3425640D01*
X1458840D01*
X1470000Y3414480D01*
Y3338280D01*
G01X1210000Y981720D02*
X1227780D01*
X1303990Y905510D01*
Y903990D01*
X1140000Y740000D01*
G01X660000Y720000D02*
Y1254480D01*
X675520Y1270000D01*
X751720D01*
G01X865740Y615860D02*
Y790740D01*
X960000Y885000D01*
Y1270000D01*
G01X860000Y360000D02*
X959730Y459730D01*
Y539650D01*
X883520Y615860D01*
X865740D01*
G01X1210000Y1190000D02*
Y1350000D01*
G01X940000Y1690000D02*
Y1776980D01*
X928280Y1788700D01*
Y1970000D01*
G01X1210000Y1350000D02*
X1063220Y1496780D01*
Y1642980D01*
X1016200Y1690000D01*
X940000D01*
G01X1270000Y1350000D02*
X1210000D01*
G01X720000Y1970000D02*
Y1952220D01*
X835860Y1836360D01*
Y1484260D01*
G01X960000Y1410000D02*
Y1270000D01*
G01X1250000Y1690000D02*
Y2190000D01*
G01X950000Y2500000D02*
X1105000D01*
X1206640Y2601640D01*
Y2740000D01*
G01X970000Y2370000D02*
X1150000Y2190000D01*
X1250000D01*
G01X1230000Y2430000D02*
X1319880D01*
X1354140Y2395740D01*
G01D02*
Y2413520D01*
X1277930Y2489730D01*
X1264930D01*
X1140000Y2364800D01*
G01X1470000Y3130000D02*
X1292200D01*
X1264260Y3157940D01*
Y3234140D01*
G01X970000Y2990000D02*
X869370Y3090630D01*
Y3136010D01*
X963360Y3230000D01*
G01X750000D02*
Y2890500D01*
X932220Y2708280D01*
X950000D01*
G01D02*
X1043980D01*
X1060000Y2692260D01*
Y2610000D01*
G01X1390000Y3760000D02*
X2096640D01*
G01X1200000Y3560000D02*
X1180000Y3580000D01*
X1070000D01*
G01X1690000Y3530000D02*
X1673360Y3546640D01*
X1390000D01*
G01D02*
X1269000Y3667640D01*
Y3698280D01*
X1179000Y3788280D01*
X1070000D01*
G01X1540000Y730000D02*
X1710000Y900000D01*
Y1101720D01*
G01X1950000Y720000D02*
X2141720Y911720D01*
Y1200000D01*
G01X1580000Y1350000D02*
X1670000D01*
X1710000Y1310000D01*
G01X1915740Y1205860D02*
Y1480000D01*
G01X1860000Y1860000D02*
Y1766020D01*
X1853980Y1760000D01*
X1690000D01*
G01X2073360Y1630000D02*
X1979370Y1723990D01*
Y1753310D01*
X2068280Y1842220D01*
Y1860000D01*
G01X1415740Y1085860D02*
Y1642380D01*
X1463360Y1690000D01*
G01X1458280Y2190000D02*
Y2172220D01*
X1557350Y2073150D01*
Y1783990D01*
X1463360Y1690000D01*
G01X1964140Y2065740D02*
X3040000D01*
G01X1630000Y2440000D02*
X1420000Y2650000D01*
Y2740000D01*
G01X2000000Y2270000D02*
X1619200D01*
X1539200Y2190000D01*
X1458280D01*
G01X2000000Y2478280D02*
X2159340D01*
G01D02*
Y2740000D01*
G01X2530000Y2420000D02*
X2159340D01*
Y2478280D01*
G01X1680000Y2940000D02*
X1583800D01*
X1470000Y3053800D01*
Y3130000D01*
G01X2330000D02*
Y3530000D01*
X2222500Y3637500D01*
X2037500D01*
X1680000Y3280000D01*
Y2940000D01*
G01X1906640Y3220000D02*
X1885740Y3199100D01*
Y2835860D01*
G01X1420000Y2740000D02*
X1513990Y2833990D01*
X1559950D01*
X1662220Y2731720D01*
X1680000D01*
G01X2159340Y2740000D02*
X2067900D01*
X2020000Y2787900D01*
Y3030000D01*
G01X2245860Y994260D02*
Y870000D01*
G01X2750000Y673360D02*
Y1070000D01*
G01Y673360D02*
X2656010Y579370D01*
X2470630D01*
X2350000Y700000D01*
G01X2750000Y1070000D02*
X2550000D01*
G01D02*
Y1336780D01*
X2650000Y1436780D01*
X2726780D01*
X2750000Y1460000D01*
G01X2550000Y770000D02*
Y1070000D01*
G01X2374260Y1563220D02*
X2350000D01*
Y1200000D01*
G01X2374260Y1563220D02*
Y1644140D01*
G01X2580000Y1540000D02*
X2374260D01*
Y1563220D01*
G01X2710000Y1630000D02*
X2593800D01*
X2580000Y1616200D01*
Y1540000D01*
G01Y1748280D02*
Y1824480D01*
X2585520Y1830000D01*
X3000000D01*
G01X3210000Y1440000D02*
X3070000D01*
X2840000Y1670000D01*
G01X3210000Y1226640D02*
X3116010Y1132650D01*
X2900710D01*
X2750000Y1283360D01*
G01X2510000Y2850000D02*
Y2620000D01*
X2530000Y2600000D01*
G01X2680000Y2180000D02*
X2609520D01*
X2530000Y2259520D01*
Y2420000D01*
G01X2940000Y2220000D02*
Y2302100D01*
X2822100Y2420000D01*
X2730660D01*
G01X2860000Y3516640D02*
Y3400000D01*
X2940000Y3320000D01*
G01X2720000Y2976640D02*
X2360000D01*
G01X2720000D02*
X2886640Y2810000D01*
X3090000D01*
G01X2360000Y2976640D02*
Y2740000D01*
G01Y2976640D02*
Y3032500D01*
X2417500D01*
X2427500Y3042500D01*
Y3736480D01*
X2403980Y3760000D01*
X2310000D01*
G01X2720000Y3190000D02*
X2970000D01*
X3080000Y3080000D01*
G01X3420000Y1008280D02*
X3513980D01*
X3550000Y1044300D01*
Y1250000D01*
G01X3214260Y904140D02*
X3196480D01*
X3120270Y980350D01*
X3090350D01*
X2980000Y870000D01*
G01X3420000Y800000D02*
X3402220D01*
X3312370Y710150D01*
X3229850D01*
X3180000Y760000D01*
G01X3420000Y1780000D02*
X3520000D01*
X3665740Y1925740D01*
Y2045860D01*
G01X3490000Y1450000D02*
X3386010Y1346010D01*
X3303990D01*
X3210000Y1440000D01*
G01X3320000Y2065740D02*
Y1987740D01*
X3366020Y1941720D01*
X3460000D01*
G01Y2150000D02*
X3390000Y2220000D01*
X3340000D01*
G01X3700000Y730000D02*
X3703360Y733360D01*
Y1450000D01*
G01X3729440Y2490000D02*
Y2307120D01*
X3786740Y2249820D01*
Y1627360D01*
X3703360Y1543980D01*
Y1450000D01*
G54D18*
G01X360000Y536640D02*
X461130Y435510D01*
X566010D01*
X642220Y511720D01*
X660000D01*
G01X1140000Y526640D02*
Y367940D01*
X992060Y220000D01*
X760000D01*
X660000Y320000D01*
Y511720D01*
G01X438280Y1030000D02*
Y936020D01*
X401260Y899000D01*
X230000D01*
X220000Y889000D01*
Y582660D01*
X266020Y536640D01*
X360000D01*
G01X450000Y3288280D02*
X432220D01*
X325280Y3395220D01*
Y3699260D01*
X366020Y3740000D01*
X460000D01*
G01X450000Y3288280D02*
X467780D01*
X630000Y3126060D01*
Y2700620D01*
X726480Y2604140D01*
X744260D01*
G01X460000Y3740000D02*
X515860Y3684140D01*
X864260D01*
G01X855860Y1064260D02*
X780000Y988400D01*
Y900000D01*
G01X1540000Y516640D02*
X1530000Y526640D01*
X1140000D01*
G01X744260Y2604140D02*
X810000Y2538400D01*
Y2400920D01*
X824140Y2386780D01*
Y2175740D01*
G01X864260Y3684140D02*
Y3540000D01*
G01X1950000Y506640D02*
X1856010Y412650D01*
X1643990D01*
X1540000Y516640D01*
G01X2350000Y486640D02*
X2256010Y392650D01*
X2063990D01*
X1950000Y506640D01*
G01X1680000Y1620000D02*
X1763990Y1536010D01*
X1766010D01*
X1860000Y1630000D01*
G01X1720000Y2550000D02*
X1794260Y2475740D01*
Y2374140D01*
G01X2120000Y3540000D02*
Y3220000D01*
G01X2750000Y460000D02*
X2656010Y366010D01*
X2470630D01*
X2350000Y486640D01*
G01X2750000Y460000D02*
X2843980D01*
X2973980Y330000D01*
X3607340D01*
X3700000Y422660D01*
Y516640D01*
G01X3130000Y2490000D02*
Y2545880D01*
X2975880Y2700000D01*
X2680000D01*
G01X2860000Y3730000D02*
X2860560Y3729440D01*
X3670000D01*
G01X2860000Y3730000D02*
X2699520D01*
X2590000Y3620480D01*
Y3550000D01*
G01X3700000Y516640D02*
X3552880D01*
X3490000Y579520D01*
Y650000D01*
G01X3350000Y1650000D02*
X3279520D01*
X3213360Y1716160D01*
Y1830000D01*
G01X3212500Y2000000D02*
Y2147500D01*
X3130000Y2230000D01*
Y2490000D01*
G01D02*
X3257000D01*
X3293360Y2526360D01*
Y3080000D01*
G01D02*
X3470370Y3257010D01*
X3487110D01*
X3614120Y3130000D01*
X3670000D01*
M02*
